<?xml version="1.0" encoding="utf-8"?>
<!-- Generator: Adobe Illustrator 24.1.3, SVG Export Plug-In . SVG Version: 6.00 Build 0)  -->
<svg version="1.1" id="Layer_1" xmlns="http://www.w3.org/2000/svg" xmlns:xlink="http://www.w3.org/1999/xlink" x="0px" y="0px"
	 viewBox="0 0 50 50" style="enable-background:new 0 0 50 50;" xml:space="preserve">
<style type="text/css">
	.st0{fill:#A02700;}
	.st1{fill:#FFFFFF;}
</style>
<path class="st0" d="M11.1,0.2h27.7c6.1,0,11.1,5,11.1,11.1V39c0,6.1-5,11.1-11.1,11.1H11.1C5,50.1,0,45.1,0,39V11.3
	C0,5.2,5,0.2,11.1,0.2z"/>
<path class="st1" d="M23.5,43.9c-1.5-0.5-1.8-1.2-2.4-5.5c-0.7-4.9-0.9-7.9-0.5-8.9c0.5-1.3,2-2,4.1-2c2,0,3.5,0.7,4.1,2
	c0.4,1,0.3,4-0.4,8.9c-0.5,3.4-0.7,4.3-1.4,4.9C26.1,44.1,24.8,44.3,23.5,43.9L23.5,43.9z M17.2,38.9c-5.1-2.5-8.4-6.8-9.6-12.4
	c-0.3-1.5-0.3-4.9-0.1-6.3c0.7-3.6,2.2-6.4,4.5-8.9c3.4-3.6,7.8-5.5,12.7-5.5c4.8,0,9.2,1.9,12.5,5.3c2.5,2.6,4,5.4,4.7,9.1
	c0.2,1.2,0.2,4.5,0,5.9c-0.8,4.3-3.2,8.3-6.7,11C34,38,31,39.7,30.5,39.7c-0.2,0-0.2-0.2-0.1-1c0.1-1.2,0.3-1.5,1-1.8
	c1.1-0.5,3-1.8,4.2-3c2-2,3.5-4.6,4.2-7.3c0.4-1.7,0.4-5.5-0.1-7.2C38,13.9,33.5,9.5,27.9,8.4c-1.6-0.3-4.6-0.3-6.2,0
	C16.1,9.5,11.4,14.1,10,19.8c-0.4,1.6-0.4,5.3,0,6.9c0.9,3.8,3.4,7.3,6.6,9.3c0.6,0.4,1.4,0.8,1.7,1c0.7,0.3,0.8,0.5,1,1.8
	c0.1,0.7,0.1,1-0.1,1C19,39.7,18.2,39.4,17.2,38.9L17.2,38.9z M17.3,32.1c-1.7-1.4-3.2-3.8-3.9-6.2c-0.4-1.4-0.4-4.2,0-5.6
	c1-3.9,3.9-6.9,7.9-8.3c1.4-0.5,4.4-0.6,6-0.2c5.8,1.3,9.8,7,9,12.8c-0.3,2.3-1.1,4.2-2.5,6c-0.7,0.9-2.4,2.4-2.7,2.4
	c0,0-0.1-0.6-0.1-1.2v-1.3l0.9-1c3.2-3.9,3-9.3-0.5-12.9c-1.4-1.4-3-2.2-5-2.6c-1.3-0.2-1.6-0.2-3,0c-2.1,0.3-3.7,1.2-5.2,2.6
	c-3.6,3.5-3.8,9-0.5,12.9l0.9,1v1.3c0,0.7-0.1,1.3-0.1,1.3C18.4,32.9,17.9,32.6,17.3,32.1L17.3,32.1z M23,25.4
	c-1.5-0.7-2.3-2-2.3-3.7c0-1.5,0.8-2.8,2.3-3.6c0.9-0.5,2.6-0.5,3.5,0c1,0.5,1.8,1.5,2.2,2.6C29.6,24,26.2,26.9,23,25.4L23,25.4z"/>
</svg>
