<?xml version="1.0" encoding="utf-8"?>
<!-- Generator: Adobe Illustrator 16.0.0, SVG Export Plug-In . SVG Version: 6.00 Build 0)  -->
<!DOCTYPE svg PUBLIC "-//W3C//DTD SVG 1.1//EN" "http://www.w3.org/Graphics/SVG/1.1/DTD/svg11.dtd">
<svg version="1.1" id="Layer_1" xmlns="http://www.w3.org/2000/svg" xmlns:xlink="http://www.w3.org/1999/xlink" x="0px" y="0px"
	 width="180px" height="45px" viewBox="0 0 180 45" enable-background="new 0 0 180 45" xml:space="preserve">
<path fill-rule="evenodd" clip-rule="evenodd" d="M103.444,33.043c-3.729-1.563-7.235-3.031-10.986-4.604
	c-2.117,1.429-4.706,2.508-7.579,2.825c-4.461,0.494-8.619-0.379-12.358-2.882c-6.922-4.633-7.505-13.337-1.273-18.866
	C74.754,6.408,79,4.902,83.533,4.098c6.604-1.172,12.987-0.495,19.081,2.388c2.585,1.224,4.905,2.836,6.822,4.982
	c4.287,4.8,5.145,11.268,2.25,17.016c-0.343,0.681-0.708,1.349-1.151,2.189c1.383,0.364,2.53,0,3.654-0.271
	c3.004-0.73,5.724-2.125,8.15-3.993c3.143-2.419,6.208-4.94,9.231-7.505c3.358-2.848,6.799-5.563,10.697-7.65
	c6.176-3.308,12.711-5.163,19.772-4.848c2.936,0.131,5.782,0.732,8.369,2.149c1.351,0.742,2.684,1.627,3.781,2.698
	c4.111,4.007,4.072,9.751,0.01,13.81c-1.525,1.525-3.326,2.654-5.348,3.387c-5.645,2.04-11.258,1.886-16.793-0.412
	c-1.99-0.826-3.737-2.032-5.074-3.753c-1.354-1.744-1.76-3.654-1.02-5.795c0.337-0.979,0.944-1.304,1.923-1.24
	c1.803,0.118,3.068,0.997,3.82,2.612c0.421,0.897,0.752,1.837,1.188,2.725c1.246,2.537,3.272,4.069,6.078,4.452
	c4.063,0.555,7.913-0.104,11.421-2.307c0.714-0.448,1.391-0.989,1.985-1.589c3.028-3.063,3.055-7.281-0.138-10.151
	c-1.334-1.199-3.01-2.155-4.692-2.795c-4.458-1.695-9.027-1.521-13.569-0.197c-3.647,1.063-6.972,2.807-10.005,5.051
	c-2.559,1.895-5.029,3.92-7.448,5.991c-3.724,3.187-7.538,6.229-11.856,8.581c-4.753,2.584-9.781,4.122-15.249,3.908
	c-0.809-0.032-1.472,0.105-2.118,0.701c-6.963,6.42-15.301,8.865-24.624,8.452c-8.405-0.374-16.113-2.956-23.287-7.256
	c-5.991-3.592-11.314-8.02-16.271-12.922c-2.063-2.04-4.17-4.059-6.434-5.868c-9.229-7.378-19.937-7.4-29.286-0.167
	c-0.56,0.434-1.083,0.917-1.651,1.336C4.8,18.51,4.022,18.507,3.535,17.804c-0.586-0.848-0.119-1.452,0.51-2.01
	c3.387-3.001,7.142-5.364,11.579-6.458c6.082-1.499,12.104-0.882,18.06,0.738c6.113,1.664,11.573,4.664,16.422,8.67
	c3.707,3.064,7.11,6.495,10.729,9.669c2.817,2.471,5.545,5.14,8.688,7.124c9.234,5.832,18.915,6.173,28.732,1.409
	C100.216,35.997,102.041,34.775,103.444,33.043z M95.023,26.429c2.93,1.897,5.987,2.959,9.172,3.682
	c1.653,0.376,1.79,0.27,2.673-1.285c3.623-6.398,1.982-14.248-3.972-18.557c-1.305-0.945-2.761-1.759-4.258-2.341
	c-6.423-2.493-12.868-2.321-19.26,0.166c-2.005,0.78-3.738,1.992-5.19,3.595c-4.399,4.854-3.463,14.242,4.691,16.563
	c3.458,0.982,6.87,0.669,10.161-0.771c0.545-0.238,1.021-0.638,1.576-0.994c-0.743-0.99-1.438-1.791-1.991-2.682
	c-1.318-2.119-1.554-4.387-0.576-6.699c0.764-1.809,2.049-3.058,4.127-3.19c2.151-0.135,3.674,0.926,4.668,2.729
	c1.306,2.366,1.104,4.774-0.111,7.112C96.285,24.622,95.683,25.41,95.023,26.429z M92.802,24.716
	c1.762-1.733,2.438-3.355,2.24-5.187c-0.197-1.802-1.381-3.118-2.7-3.001c-1.226,0.109-2.173,1.452-2.222,3.2
	C90.062,21.832,91.188,23.31,92.802,24.716z"/>
<g>
</g>
<g>
</g>
<g>
</g>
<g>
</g>
<g>
</g>
<g>
</g>
</svg>
