<?xml version="1.0" encoding="utf-8"?>
<!-- Generator: Adobe Illustrator 23.0.6, SVG Export Plug-In . SVG Version: 6.00 Build 0)  -->
<svg version="1.1" id="Layer_1" xmlns="http://www.w3.org/2000/svg" xmlns:xlink="http://www.w3.org/1999/xlink" x="0px" y="0px"
	 viewBox="0 0 132.5 41.5" style="enable-background:new 0 0 132.5 41.5;" xml:space="preserve">
<g>
	<path d="M112.92,19.75c1.18-0.95,2.04-1.65,2.91-2.35c-1.68-2-2.93-2.32-4.87-1.33c-1.74,0.88-2.66,2.62-2.04,4.44
		c1.13,3.32,3.83,5.08,6.93,6.16c2.57,0.9,4.56-0.48,6.35-2.21c3.63-3.5,3.94-4.89,1.59-9.36c-1.15-2.19-2.44-4.37-4-6.29
		c-2.77-3.41-6.71-3.96-10.52-1.76c-4.72,2.73-8.52,6.47-11.42,11.05c-1.88,2.97-4.33,5.32-6.87,7.64
		c-4.01,3.66-8.96,4.83-14.15,4.92c-2.95,0.06-5.44,0.73-8.04,2.21c-8.06,4.59-16.05,4.33-23.66-1.26c-2.39-1.76-4.88-3.4-7.18-5.27
		c-2.2-1.79-4.47-3.6-6.24-5.78c-2.9-3.57-6.75-5.13-10.98-6.08c-4.53-1.02-9-0.92-13,1.81c-1.43,0.98-2.65,2.25-4.37,3.73
		c-0.26-0.97-0.8-1.85-0.55-2.3c0.6-1.1,1.4-2.24,2.41-2.94c3.29-2.29,6.92-3.53,11.04-3.33c9.73,0.48,17.89,3.93,24.11,11.71
		c2.13,2.66,4.75,5.01,7.41,7.17c5.04,4.09,14.44,4.04,19.36,0.03c-2.33-1.07-4.47-2.01-7.16-1.31c-3.37,0.87-6.33-0.26-8.64-2.91
		c-0.62-0.72-1.25-1.44-1.81-2.2c-3.39-4.68-1.78-11.23,3.59-13.31c4.86-1.88,9.9-3.22,15.2-3.48c5.53-0.27,9.24,2.62,12.2,6.73
		c1.9,2.63,0.92,5.54-0.17,8.18c-0.8,1.93-2.12,3.65-3.48,5.9c4.41,0.09,8.3-0.77,11.37-3.5c2.54-2.26,4.62-5.06,6.78-7.72
		c2.54-3.12,4.85-6.43,7.46-9.49c1.63-1.91,3.85-3.1,6.32-3.83c5.38-1.57,9.99-0.28,13.3,4.14c2.11,2.81,3.65,6.08,5.22,9.26
		c1.28,2.6,0.64,5.1-1.25,7.27c-0.31,0.36-0.62,0.72-0.94,1.07c-5.61,6.13-13.18,5.5-17.64-1.54c-1.46-2.3-2.17-4.79-0.54-7.37
		c1.73-2.73,4.33-3.56,7.39-3.23c1.96,0.21,3.23,1.43,4.01,3.14c0.65,1.43,0.25,2.82-1.11,3.74c-0.65,0.44-1.5,0.76-2.28,0.8
		C114.41,20.75,113.83,20.21,112.92,19.75z M66.51,26.95c3.28,1.26,4.36,1.37,6.1,0.25c2.78-1.77,5-4.11,5.82-7.35
		c0.36-1.4,0.54-3.32-0.14-4.42c-2.13-3.46-5.26-6.02-9.56-5.82c-4.13,0.19-8.35,0.71-11.82,3.31c-1.67,1.25-3.09,2.89-4.47,4.49
		c-0.47,0.55-0.85,1.72-0.58,2.27c0.7,1.46,1.66,2.86,2.75,4.06c1.02,1.12,2.41,1.77,4.23,1.51c-0.27-3.96,1.38-6.84,4.39-8.94
		c2.04-1.42,4.57-1.26,6.27,0.23c1.6,1.4,1.99,3.57,0.67,5.84C69.26,23.96,67.87,25.28,66.51,26.95z M62.39,25.02
		c3.31-1.02,4.99-2.27,5.62-4.07c0.62-1.78-0.6-3.5-2.22-2.83c-1.32,0.55-2.49,1.73-3.4,2.88C61.51,22.09,61.01,23.51,62.39,25.02z"
		/>
</g>
</svg>
