<svg width="44" height="44" viewBox="0 0 44 44" fill="none" xmlns="http://www.w3.org/2000/svg">
<path d="M28.1606 9.67871H32.5596C33.0457 9.67871 33.4404 9.28662 33.4404 8.80054V2.87085C33.4404 2.41162 33.0859 2.02759 32.6267 1.99536C31.2249 1.89331 28.491 1.75903 26.5251 1.75903C21.1191 1.75903 17.6011 4.9978 17.6011 10.8845V16.7202H11.4404C10.9543 16.7202 10.5596 17.115 10.5596 17.6011V23.759C10.5596 24.2451 10.9543 24.6399 11.4404 24.6399H17.6011V41.3601C17.6011 41.8462 17.9932 42.241 18.4792 42.241H24.6399C25.126 42.241 25.5208 41.8462 25.5208 41.3601V24.6399H31.8748C32.3232 24.6399 32.7019 24.3042 32.7502 23.8557L33.4351 17.6978C33.4941 17.1768 33.0833 16.7202 32.5596 16.7202H25.5208V12.3213C25.5208 10.863 26.7024 9.67871 28.1606 9.67871Z" fill="white"/>
</svg>
