<svg width="56" height="56" viewBox="0 0 56 56" fill="none" xmlns="http://www.w3.org/2000/svg">
<path d="M35.8408 12.3184H41.4395C42.0581 12.3184 42.5605 11.8193 42.5605 11.2007V3.65381C42.5605 3.06934 42.1094 2.58057 41.5249 2.53955C39.7407 2.40967 36.2612 2.23877 33.7593 2.23877C26.8789 2.23877 22.4014 6.36084 22.4014 13.853V21.2803H14.5605C13.9419 21.2803 13.4395 21.7827 13.4395 22.4014V30.2388C13.4395 30.8574 13.9419 31.3599 14.5605 31.3599H22.4014V52.6401C22.4014 53.2588 22.9004 53.7612 23.519 53.7612H31.3599C31.9785 53.7612 32.481 53.2588 32.481 52.6401V31.3599H40.5679C41.1387 31.3599 41.6206 30.9326 41.6821 30.3618L42.5537 22.5244C42.6289 21.8613 42.106 21.2803 41.4395 21.2803H32.481V15.6816C32.481 13.8257 33.9849 12.3184 35.8408 12.3184Z" fill="#B22225"/>
</svg>
