<svg width="78" height="78" viewBox="0 0 78 78" fill="none" xmlns="http://www.w3.org/2000/svg">
<path d="M25.9984 9.75C17.0387 9.75 9.75 17.0387 9.75 25.9984V52.0016C9.75 60.9613 17.0387 68.25 25.9984 68.25H52.0016C60.9613 68.25 68.25 60.9613 68.25 52.0016V25.9984C68.25 17.0387 60.9613 9.75 52.0016 9.75H25.9984ZM25.9984 16.2484H52.0016C57.3765 16.2484 61.7516 20.6235 61.7516 25.9984V52.0016C61.7516 57.3765 57.3765 61.7516 52.0016 61.7516H25.9984C20.6235 61.7516 16.2484 57.3765 16.2484 52.0016V25.9984C16.2484 20.6235 20.6235 16.2484 25.9984 16.2484ZM55.2484 19.5C53.4536 19.5 52.0016 20.9568 52.0016 22.7516C52.0016 24.5464 53.4536 25.9984 55.2484 25.9984C57.0432 25.9984 58.5 24.5464 58.5 22.7516C58.5 20.9568 57.0432 19.5 55.2484 19.5ZM39 22.7516C30.0403 22.7516 22.7516 30.0403 22.7516 39C22.7516 47.9597 30.0403 55.2484 39 55.2484C47.9597 55.2484 55.2484 47.9597 55.2484 39C55.2484 30.0403 47.9597 22.7516 39 22.7516ZM39 29.25C44.3749 29.25 48.75 33.6251 48.75 39C48.75 44.3749 44.3749 48.75 39 48.75C33.6251 48.75 29.25 44.3749 29.25 39C29.25 33.6251 33.6251 29.25 39 29.25Z" fill="#B22225"/>
</svg>
