<svg width="45" height="45" viewBox="0 0 45 45" fill="none" xmlns="http://www.w3.org/2000/svg">
<path d="M12.39 0C5.5579 0 0 5.5579 0 12.39V32.2184C0 39.0505 5.5579 44.6084 12.39 44.6084H32.2184C39.0505 44.6084 44.6084 39.0505 44.6084 32.2184V12.39C44.6084 5.5579 39.0505 0 32.2184 0H12.39ZM12.39 4.95528H32.2184C36.317 4.95528 39.6531 8.29148 39.6531 12.39V32.2184C39.6531 36.317 36.317 39.6531 32.2184 39.6531H12.39C8.29148 39.6531 4.95528 36.317 4.95528 32.2184V12.39C4.95528 8.29148 8.29148 4.95528 12.39 4.95528ZM34.6942 7.43474C33.3256 7.43474 32.2184 8.54559 32.2184 9.91419C32.2184 11.2828 33.3256 12.39 34.6942 12.39C36.0628 12.39 37.1737 11.2828 37.1737 9.91419C37.1737 8.54559 36.0628 7.43474 34.6942 7.43474ZM22.3042 9.91419C15.4721 9.91419 9.91419 15.4721 9.91419 22.3042C9.91419 29.1363 15.4721 34.6942 22.3042 34.6942C29.1363 34.6942 34.6942 29.1363 34.6942 22.3042C34.6942 15.4721 29.1363 9.91419 22.3042 9.91419ZM22.3042 14.8695C26.4028 14.8695 29.739 18.2057 29.739 22.3042C29.739 26.4028 26.4028 29.739 22.3042 29.739C18.2057 29.739 14.8695 26.4028 14.8695 22.3042C14.8695 18.2057 18.2057 14.8695 22.3042 14.8695Z" fill="white"/>
</svg>
