<?xml version="1.0" encoding="utf-8"?>
<!-- Generator: Adobe Illustrator 24.1.3, SVG Export Plug-In . SVG Version: 6.00 Build 0)  -->
<svg version="1.1" id="Layer_1" xmlns="http://www.w3.org/2000/svg" xmlns:xlink="http://www.w3.org/1999/xlink" x="0px" y="0px"
	 viewBox="0 0 108.5 28" style="enable-background:new 0 0 108.5 28;" xml:space="preserve">
<style type="text/css">
	.st0{fill:#FFFFFF;stroke:#372D2D;stroke-miterlimit:10;}
	.st1{fill:#372D2D;}
	.st2{fill:none;stroke:#A02700;stroke-miterlimit:10;}
	.st3{fill:#A02700;}
</style>
<g>
	<circle class="st0" cx="40.5" cy="14" r="11.5"/>
	<polygon class="st1" points="48.4,14 36.6,7.1 36.6,20.9 	"/>
</g>
<g>
	<circle class="st0" cx="13.5" cy="14" r="11.5"/>
	<g>
		<path class="st1" d="M11.1,21H9.9c-0.2,0-0.4-0.2-0.4-0.4V7.4C9.5,7.2,9.7,7,9.9,7h1.1c0.2,0,0.4,0.2,0.4,0.4v13.1
			C11.5,20.8,11.3,21,11.1,21z"/>
		<path class="st1" d="M17.1,21h-1.1c-0.2,0-0.4-0.2-0.4-0.4V7.4c0-0.2,0.2-0.4,0.4-0.4h1.1c0.2,0,0.4,0.2,0.4,0.4v13.1
			C17.5,20.8,17.3,21,17.1,21z"/>
	</g>
</g>
<g>
	<circle class="st2" cx="94.5" cy="14" r="11.5"/>
	<polygon class="st2" points="102.4,14 90.6,7.1 90.6,20.9 	"/>
</g>
<g>
	<circle class="st2" cx="67.5" cy="14" r="11.5"/>
	<g>
		<path class="st3" d="M65.1,21h-1.1c-0.2,0-0.4-0.2-0.4-0.4V7.4c0-0.2,0.2-0.4,0.4-0.4h1.1c0.2,0,0.4,0.2,0.4,0.4v13.1
			C65.5,20.8,65.3,21,65.1,21z"/>
		<path class="st3" d="M71.1,21h-1.1c-0.2,0-0.4-0.2-0.4-0.4V7.4c0-0.2,0.2-0.4,0.4-0.4h1.1c0.2,0,0.4,0.2,0.4,0.4v13.1
			C71.5,20.8,71.3,21,71.1,21z"/>
	</g>
</g>
</svg>
