<svg width="111" height="83" viewBox="0 0 111 83" fill="none" xmlns="http://www.w3.org/2000/svg">
<g clip-path="url(#clip0_9_2)">
<path d="M111 0H0V83H111V0Z" fill="white"/>
<path d="M2.30566 2.26672H108.694V80.7018C107.065 80.9999 9.947 81.1332 2.30566 80.8273V2.26672ZM5.70531 6.75321V27.4522H39.5444C41.9997 27.4522 44.455 27.4914 46.9024 27.4522C49.3142 27.4897 51.7262 27.3901 54.1266 27.1542C56.6342 26.9356 59.1552 26.9173 61.6657 27.0993C64.2075 27.1699 66.7022 26.6522 69.2519 26.6679C80.647 26.7542 92.0736 26.6679 103.437 26.6679H105.263C105.428 25.0521 105.617 23.5305 105.719 22.0402C105.916 19.3342 105.609 16.636 106.026 13.8986C106.404 11.4593 106.105 8.91802 106.105 6.3375H104.72C102.705 6.3375 100.691 6.43163 98.684 6.3375C96.6773 6.24338 94.7493 6.72968 92.7897 6.72968H5.70531V6.75321ZM47.7681 66.2384C48.7124 66.2384 49.6567 66.2384 50.5932 66.2384C50.9322 66.1625 51.2601 66.0439 51.569 65.8854C53.4677 65.2565 55.1431 64.0933 56.3931 62.5362C57.3768 61.3519 57.5184 59.8302 57.7309 58.4106C57.9992 56.1382 57.4769 53.843 56.2514 51.9083C55.1793 50.21 53.4857 48.9947 51.5297 48.5199C50.5851 48.3162 49.6235 48.2006 48.6573 48.1748C48.2087 48.1748 47.5713 47.7199 47.3588 47.8924C47.1604 48.039 46.9321 48.1402 46.69 48.189C46.4479 48.2378 46.198 48.233 45.9581 48.1748C45.0504 48.1065 44.1393 48.2516 43.2981 48.5983C41.5511 49.2493 39.8513 50.0964 39.0958 51.9397C38.4852 53.2219 38.1451 54.6154 38.0964 56.034C38.0964 56.9752 38.1515 57.9164 38.0964 58.8498C37.9075 61.5558 39.4342 63.3676 41.4409 64.7089C43.0349 65.9039 45.0188 66.4632 47.0047 66.2776C47.2577 66.244 47.513 66.2309 47.7681 66.2384ZM5.92566 65.2658C7.89304 65.9874 9.59287 66.2227 11.3399 65.305V60.2773C12.9138 60.2224 14.3776 59.6734 15.9279 59.8067C16.5242 59.8579 17.1191 59.6936 17.6041 59.3439C19.3354 57.9007 20.7519 56.2065 20.3741 53.7358C20.0755 52.6633 19.6967 51.6146 19.2409 50.5984C18.7689 50.05 18.1815 49.6119 17.5206 49.315C16.8596 49.0182 16.1412 48.8699 15.4163 48.8807C14.4012 48.8807 13.323 49.1317 12.3708 48.5199H6.07518C5.85663 49.7739 5.70428 51.0384 5.61874 52.3083C5.56366 55.9398 5.5794 59.5792 5.61874 63.2186C5.67646 63.9069 5.77898 64.5907 5.92566 65.2658ZM61.162 48.9199C61.162 50.2455 61.1148 51.3749 61.162 52.4965C61.2092 53.6182 60.7371 54.5986 60.7213 55.7202C60.6741 58.4968 61.4296 61.2107 61.1542 64.0108C61.1308 64.4497 61.1308 64.8896 61.1542 65.3285C63.1373 65.9717 64.963 66.1992 66.8202 65.3285C66.8202 64.4579 66.8202 63.5873 66.8202 62.7245C66.7632 61.8849 66.7869 61.0418 66.8911 60.2067C68.465 60.3165 69.8894 59.8302 71.361 59.7518C72.0236 59.7093 72.667 59.5126 73.2397 59.1775C73.8123 58.8425 74.2981 58.3783 74.6583 57.8223C74.9573 57.2482 75.2201 56.6562 75.4453 56.0497C75.4453 55.5947 75.4925 54.9045 75.4453 54.23C75.4517 53.271 75.3138 52.3166 75.036 51.3985C74.4143 49.8298 72.9349 49.2964 71.4318 48.9356C70.9281 48.8179 70.3537 49.0297 69.9208 48.6062C69.488 49.1709 68.882 48.8964 68.3469 48.9042C66.0411 48.9356 63.6645 48.9199 61.162 48.9199ZM92.9314 65.3442C93.9655 65.5921 95.0183 65.7548 96.0792 65.8305C99.0303 65.7834 102.013 66.2384 104.917 65.3442V60.944H98.204V59.0537H104.153V54.9045H98.2197V53.0064H104.476L104.814 48.9591H92.8606C92.8606 50.4729 92.7504 51.971 92.8606 53.4456C92.9707 54.9202 92.4986 56.3399 92.4199 57.7988C92.3569 60.3401 92.8999 62.8186 92.9314 65.3442ZM35.4129 61.3519C33.052 61.297 30.8249 61.5793 28.6923 60.8107V59.0459H34.6338V54.9045H28.7395V53.0613H31.9817C33.0284 53.0613 34.075 53.0613 35.0351 53.0613V48.5826H23.459V65.3991C27.4241 66.0894 31.4792 66.0894 35.4443 65.3991L35.4129 61.3519ZM76.6178 36.2526C76.5547 36.9388 76.5547 37.6293 76.6178 38.3155C76.9326 39.9626 77.452 41.4529 79.1754 42.3235C81.5827 43.5014 84.3578 43.6902 86.9033 42.849C88.0471 42.5793 89.0489 41.8941 89.7127 40.9274C91.3417 38.2135 91.7273 35.28 89.815 32.5662C89.1147 31.5622 88.2411 30.472 86.8325 30.2837C85.4238 30.0955 83.8499 29.8759 82.3547 29.7425C81.977 29.7425 81.5678 30.0484 81.19 30.0876C79.9718 30.2069 78.8386 30.7636 78.0017 31.654C77.1649 32.5444 76.6814 33.7077 76.6414 34.9271L76.6178 36.2526ZM84.1175 60.9754V49.0062H78.5852V65.3991C82.4211 66.0855 86.349 66.0855 90.1849 65.3991V60.9675L84.1175 60.9754ZM39.2611 30.519C39.2611 31.6093 39.2611 32.5584 39.2611 33.4917C39.3654 34.5108 39.2773 35.5404 39.0014 36.5272C38.2144 35.2644 37.6478 34.2761 37.0182 33.327C36.3887 32.378 35.9952 31.1308 34.9486 30.5661H30.943C30.943 34.2761 30.943 37.9155 30.943 41.547C30.89 41.8114 30.9233 42.0857 31.0379 42.3299C31.1526 42.574 31.3427 42.7752 31.5804 42.9039C32.5562 42.9039 33.6501 42.951 34.8069 42.8569V37.0527C36.1998 37.6488 36.2549 39.0371 36.9868 39.8999C37.6407 40.8236 38.2172 41.7995 38.7102 42.8177H42.4955C42.729 42.3187 42.8957 41.7913 42.9912 41.249C43.0306 37.6958 42.9912 34.1349 42.9912 30.5426L39.2611 30.519ZM46.5011 30.519V42.8961C48.6337 42.8961 50.7034 42.9667 52.7967 42.8961C54.3474 42.8543 55.8321 42.2618 56.9833 41.2254C57.795 40.5195 58.3486 39.565 58.5572 38.5116C58.6595 37.8684 58.3841 37.1546 58.9428 36.6056C58.447 35.9703 58.6123 35.2173 58.5493 34.5035C58.5493 34.229 58.2896 33.9859 58.2109 33.7192C57.5735 31.3661 55.5274 30.7936 53.56 30.5818C51.2085 30.4096 48.849 30.3729 46.4932 30.472L46.5011 30.519ZM104.956 45.2648H5.67383V46.2688H104.948L104.956 45.2648ZM101.95 37.6488C102.694 37.4477 103.339 36.9811 103.761 36.3377C104.183 35.6943 104.354 34.9188 104.24 34.1584C104.243 33.3719 104.002 32.6037 103.55 31.9592C103.097 31.3146 102.456 30.8253 101.714 30.5583H93.7341V42.849H97.842V38.7626L98.0938 38.6998L100.541 42.8333H105.263C104.106 41.0293 103.091 39.4293 101.95 37.6488ZM29.55 42.8647C27.8187 38.6815 26.1268 34.5846 24.4742 30.5739H19.6738C18.0212 34.6996 16.3843 38.7626 14.7317 42.8804H19.1544L19.7682 41.0764H24.1201L25.0723 42.8647H29.55ZM74.2884 33.4839V30.5896H66.1041V42.8177H69.7556L70.3537 38.7312L73.9028 38.2527V34.9428H70.2041L70.275 33.4839H74.2884ZM9.75813 39.5155V30.472H7.62548C6.95657 30.472 6.29553 30.472 5.69744 30.5269V42.8098H13.8896V39.5155H9.75813ZM16.0538 68.1208C14.7081 69.2738 14.6058 69.4228 14.1572 70.7562C13.8742 71.5584 13.8684 72.4319 14.1407 73.2377C14.4131 74.0436 14.948 74.7355 15.6603 75.2035C16.7003 75.7287 17.8925 75.8731 19.0285 75.6114C19.8819 75.3803 20.6831 74.9889 21.3893 74.4584C21.7098 74.2293 21.9642 73.9204 22.1272 73.5625C22.2902 73.2046 22.356 72.8103 22.3179 72.4191C22.3179 71.7994 22.3179 71.1719 22.3179 70.5915C22.1797 70.4526 22.0558 70.3001 21.9481 70.1366C21.6928 69.487 21.2321 68.9379 20.6357 68.5728C20.0392 68.2076 19.3396 68.0462 18.6428 68.113C17.7693 68.1522 16.9509 68.1208 16.0302 68.1208H16.0538ZM47.5871 73.5015C47.5871 73.2269 47.4926 72.9132 47.5871 72.7171C48.3032 71.619 47.6343 70.7562 47.2251 69.7915C47.0437 69.2885 46.7083 68.8551 46.2663 68.5525C45.8243 68.2498 45.298 68.0934 44.7619 68.1051C44.3291 68.1051 43.8805 68.1757 43.6051 67.7286C43.3296 68.1836 42.8732 68.113 42.4482 68.0973C42.092 68.0949 41.7389 68.1629 41.4093 68.2976C41.0796 68.4322 40.7801 68.6307 40.5281 68.8816L39.6545 69.666V73.3054C40.3235 75.4074 42.0154 75.4231 43.4713 75.6584C45.2104 75.8624 46.4302 74.9211 47.5634 73.5015H47.5871ZM82.0557 75.0702C82.1634 74.921 82.2875 74.7842 82.4255 74.6623C82.801 74.3538 83.0938 73.9573 83.2779 73.5083C83.4619 73.0594 83.5314 72.5719 83.4801 72.0896C83.4801 71.721 83.4801 71.3445 83.4801 70.968C83.4677 70.2175 83.161 69.5017 82.6256 68.9739C82.0901 68.4461 81.3686 68.1483 80.6156 68.1443C79.6161 68.1443 78.6167 68.1443 77.7825 68.1443C77.2023 68.3636 76.6802 68.7123 76.256 69.1637C75.8318 69.615 75.5168 70.1571 75.3351 70.7484C74.9573 71.9877 75.5397 72.8975 75.8623 73.9564C76.185 75.0153 77.0113 74.9682 77.7274 75.3212C78.5732 75.6693 79.4977 75.7832 80.4031 75.6506C80.9676 75.5124 81.5142 75.3097 82.0321 75.0466L82.0557 75.0702ZM7.99535 75.2584V71.972L9.97847 75.1878H12.4023V68.2385H10.4821V71.6896C9.042 70.9523 8.90822 69.3993 8.12126 68.615H5.69744V75.2584H7.99535ZM50.0187 68.1992C49.8771 68.3404 49.6331 68.4738 49.6253 68.6071C49.6253 70.8268 49.6253 73.0544 49.6253 75.2898H51.7815V72.7014L53.4656 75.18H55.8737L54.2211 72.4818L55.5038 71.4543C55.5038 69.6974 55.5038 69.6974 54.7169 68.6934C53.2033 68.1635 51.5904 67.976 49.9951 68.1443L50.0187 68.1992ZM74.4143 75.2584C74.076 74.7172 73.7848 74.2309 73.47 73.7681C72.746 72.725 72.7303 72.7171 73.6116 71.823C73.7132 71.7047 73.836 71.6063 73.9736 71.5327C74.0639 70.951 73.9835 70.3556 73.7419 69.8184C73.5003 69.2812 73.108 68.8251 72.6122 68.5051L68.04 68.0267V75.2192H69.732L70.3615 72.9916L71.8095 75.227L74.4143 75.2584ZM62.8382 73.0701C64.0029 73.0701 65.3171 72.8975 66.0411 71.6504V69.0228C63.5308 68.2385 62.8933 67.862 60.4616 68.3169V75.2506H62.248L62.8382 73.0701ZM87.6745 71.1406V69.9954H89.7993V68.5444H85.4238V75.2192H87.0843C87.2877 74.909 87.4566 74.5776 87.588 74.2309C87.6495 73.8866 87.6785 73.5374 87.6745 73.1877L89.815 72.5759V71.1406H87.6745ZM33.6501 68.4973C33.5556 70.7562 33.5556 73.0152 33.6501 75.2035H35.2948L35.948 73.023C37.7737 72.9446 37.7737 72.9446 37.6006 71.1798L35.6332 71.0229L36.4202 69.9483H38.1436L38.0649 68.4973H33.6501ZM97.1101 69.9954V75.18H99.3687V70.0425L101.139 69.9483V68.5914H95.2214V69.9954H97.1101ZM27.4804 75.2976C27.4804 75.0153 27.5433 74.7329 27.5433 74.4427C27.5433 73.1328 27.5433 71.823 27.5433 70.5209C27.5707 70.3326 27.6209 70.1482 27.6928 69.9719H29.0621L28.9834 68.5836H23.3803L23.4354 69.8778L25.2769 70.3719C25.2769 71.3602 25.2769 72.1602 25.2769 72.9681C25.2176 73.7532 25.2466 74.5425 25.3634 75.3212L27.4804 75.2976ZM93.9623 75.2976V68.5993H91.8218V75.2427L93.9623 75.2976ZM105.326 68.2385H103.185V72.6308H105.326V68.2385ZM105.452 73.8858L103.209 73.3446V75.1408L104.783 75.6663L105.452 73.8858Z" fill="#B30100"/>
<path d="M32.0132 18.8245H34.9564L35.2239 19.5461L37.4117 12.832H39.505C40.2919 15.3106 41.0395 17.7499 41.8186 20.2441H39.9535L39.4971 18.8794H37.3644L36.8293 20.2834H30.2661V12.832H32.0132V18.8245ZM39.0957 17.2558L38.3088 14.7851L37.7737 17.2558H39.0957Z" fill="#B30100"/>
<path d="M97.0396 20.2676H95.2217V17.8362L93.4826 13.7968L93.1757 14.5811H91.0509V20.1971H89.1386V14.6752H87.2656V12.8398H94.8204L96.0874 15.789C97.0317 15.0047 96.9924 13.7968 97.5275 12.8712H99.3926C98.881 14.2111 98.2924 15.5205 97.6298 16.793C97.211 17.9027 97.0107 19.0824 97.0396 20.2676Z" fill="#B30100"/>
<path d="M47.1307 20.2676H45.7378V12.8712H47.4455L49.1768 17.044C49.7985 15.5223 50.3415 14.1811 50.8923 12.8398H52.3482L52.8125 13.3026V20.252H51.0025V16.7302C50.0503 17.844 50.2707 19.3107 49.0194 20.0402C48.0436 19.0754 47.9413 17.742 47.3196 16.4479C47.0284 17.7577 47.3038 18.9499 47.1307 20.2676Z" fill="#B30100"/>
<path d="M15.3222 17.5773L16.8961 20.2127H14.8973C14.2824 19.348 13.7251 18.4441 13.2289 17.5067L12.8354 17.6949V20.2676H11.0176V12.8398C12.4413 12.6462 13.8896 12.7423 15.275 13.1222L16.6128 14.5889C16.7114 15.1581 16.6418 15.7436 16.4127 16.2741C16.1836 16.8046 15.8047 17.2574 15.3222 17.5773ZM12.8748 14.1654V16.0713H14.6454V14.7301L12.8748 14.1654Z" fill="#B30100"/>
<path d="M66.4426 20.2441V17.3498H64.2234V20.2598H62.374V12.8163H64.1211V15.687H66.4032V13.3889L66.962 12.832H68.3077V20.2441H66.4426Z" fill="#B30100"/>
<path d="M71.8098 18.8245H74.7058V20.2363H69.8975V12.8634H74.6979L74.7766 14.6203H71.8019L71.7311 15.7733H74.3044V17.2558H71.8098V18.8245Z" fill="#B30100"/>
<path d="M17.7539 20.3069V12.8398H22.1136C22.7747 13.6791 22.7747 13.6791 22.1136 14.6517H19.6741V15.7341H21.8225V17.3028H19.6741V18.8244H22.6488C22.6488 19.1931 22.6488 19.4362 22.6488 19.6715C22.6488 20.0794 22.6488 20.3775 22.0743 20.3618C20.6892 20.2755 19.3042 20.3069 17.7539 20.3069Z" fill="#B30100"/>
<path d="M77.8064 15.4281C78.0189 14.7408 78.4233 14.128 78.9724 13.6613C79.5215 13.1946 80.1925 12.8933 80.907 12.7927C81.8356 12.5966 82.4022 12.8711 83.5433 13.8829L82.6304 14.9967L81.3398 14.3379L79.7187 15.4673V17.8988L80.8125 18.8244L82.9609 18.4479L83.7479 19.3577C83.4331 20.2283 82.4337 20.1813 81.749 20.5891C81.0644 20.997 80.2853 20.1421 79.577 20.2597C77.5309 19.0675 77.6805 17.138 77.8064 15.4281Z" fill="#B30100"/>
<path d="M25.277 17.8597L26.3 18.8715L28.5271 18.5342L29.3141 19.5931C29.078 20.3069 28.0786 20.3304 27.3467 20.6363C26.2764 21.0834 24.1989 19.7108 23.7818 18.5578C23.3007 17.3274 23.3261 15.9576 23.8526 14.7458C24.3327 13.4987 25.4265 13.1771 26.4338 12.8242C26.9256 12.6903 27.4468 12.7103 27.9268 12.8814C28.4068 13.0526 28.8224 13.3666 29.1173 13.7811C29.0387 13.9379 28.9285 14.134 28.834 14.338C28.7396 14.5419 28.653 14.7694 28.5586 14.9811L27.1185 14.1968L25.2927 15.4596L25.277 17.8597Z" fill="#B30100"/>
<path d="M59.7222 20.2676H57.8099V14.6909H56.1258C55.3389 14.0006 55.2366 13.4359 56.0629 12.8241H61.4614V14.6516H59.7222V20.2676Z" fill="#B30100"/>
<path d="M42.3459 12.8163H44.0694V20.2362L42.3145 20.3304L42.3459 12.8163Z" fill="#B30100"/>
<path d="M86.4157 20.2755H84.645V12.8399L86.4157 12.7693V20.2755Z" fill="#B30100"/>
<path d="M49.8379 60.9675C48.87 60.9675 48.1775 60.9675 47.4771 60.9675C46.8245 61.0752 46.1552 60.933 45.6034 60.5693C45.0517 60.2056 44.6584 59.6474 44.5024 59.0067C44.2333 58.3726 44.0947 57.6911 44.0947 57.0026C44.0947 56.3142 44.2333 55.6327 44.5024 54.9986C44.5543 54.8337 44.6313 54.6776 44.7306 54.5359C45.069 54.1672 45.431 53.8221 45.8245 53.4299C46.1202 53.4573 46.4179 53.4573 46.7137 53.4299C47.1072 53.3515 47.5007 53.0299 47.8705 53.0927C48.6672 53.2727 49.4426 53.5356 50.1842 53.877C50.4912 54.0373 50.7453 54.2824 50.9161 54.5829C51.2993 55.1899 51.522 55.8838 51.5633 56.5998C51.6046 57.3158 51.4631 58.0305 51.1521 58.6772C50.7631 59.4676 50.3241 60.2326 49.8379 60.9675Z" fill="#B30100"/>
<path d="M11.293 53.0927H14.2519V55.5712L12.0012 56.0889C11.0884 55.2967 11.3402 54.2456 11.293 53.0927Z" fill="#B30100"/>
<path d="M69.4172 55.5869L66.8911 56.1202V53.1554H69.4251L69.4172 55.5869Z" fill="#B30100"/>
<path d="M86.4312 35.1389C86.6909 36.5665 86.14 37.7665 85.6442 39.0607C84.6527 39.0607 83.7162 40.0804 82.4964 39.1784C82.0085 38.8176 81.4734 38.5509 81.2373 38.0097C80.8973 37.3162 80.8032 36.5284 80.9704 35.7748C81.1377 35.0211 81.5563 34.3463 82.158 33.8605C83.4172 33.0526 84.7156 33.4291 86.4312 35.1389Z" fill="#B30100"/>
<path d="M50.2471 39.5077V33.8447C51.278 33.9624 52.2538 33.7114 53.2768 34.2055C53.7008 34.4342 54.0535 34.7746 54.2964 35.1896C54.5393 35.6046 54.663 36.0782 54.654 36.5586C54.6096 37.4282 54.2421 38.2502 53.6231 38.8646C53.2139 39.3116 52.3561 39.3744 51.6793 39.5234C51.2025 39.5624 50.723 39.5572 50.2471 39.5077Z" fill="#B30100"/>
<path d="M97.4878 33.5232H99.9903V34.8958L98.9988 35.6802C98.7267 35.766 98.4345 35.7645 98.1634 35.6758C97.8922 35.5871 97.6559 35.4158 97.4878 35.186V33.5232Z" fill="#B30100"/>
<path d="M21.6336 34.9663C22.6645 35.1075 22.5701 35.7507 22.7118 36.3625C22.8829 36.9011 23.0961 37.4256 23.3492 37.9312H20.8467L21.6336 34.9663Z" fill="#B30100"/>
<path d="M17.5808 70.019C18.0872 69.9172 18.6135 70.0049 19.0591 70.2653C19.5048 70.5257 19.8386 70.9407 19.9967 71.4309L19.2098 73.3447H17.085C16.606 72.6275 16.4281 71.7518 16.5892 70.9054L17.5808 70.019Z" fill="#B30100"/>
<path d="M42.8103 70.0347H44.3843L45.2735 71.219L44.8564 73.3289H42.8103C41.5906 71.7916 41.5906 71.6975 42.8103 70.0347Z" fill="#B30100"/>
<path d="M78.1133 73.329L77.7041 70.8896L79.4275 69.9014L81.269 70.8347L80.7496 73.329H78.1133Z" fill="#B30100"/>
<path d="M51.813 70.019C52.5999 69.9091 53.08 70.1209 53.2689 70.9288L51.813 71.6426V70.019Z" fill="#B30100"/>
<path d="M69.8659 70.0738C70.6057 69.9483 71.2195 69.8699 71.7153 70.5758L70.5034 71.2582C69.9919 71.3759 69.7558 70.8974 69.8659 70.0738Z" fill="#B30100"/>
<path d="M64.2156 70.6465L62.8306 71.4779L62.2246 70.1445C63.0352 69.917 63.6805 69.8072 64.2156 70.6465Z" fill="#B30100"/>
</g>
<defs>
<clipPath id="clip0_9_2">
<rect width="111" height="83" fill="white"/>
</clipPath>
</defs>
</svg>
