<svg width="40" height="40" viewBox="0 0 40 40" fill="none" xmlns="http://www.w3.org/2000/svg">
<path d="M29.9614 17.1935C29.9614 24.0502 24.4676 29.5988 17.7026 29.5988C10.9377 29.5988 5.44385 24.0502 5.44385 17.1935C5.44385 10.3368 10.9377 4.78809 17.7026 4.78809C24.4676 4.78809 29.9614 10.3368 29.9614 17.1935Z" stroke="black"/>
<path d="M33.0991 17.1935C33.0991 25.8203 26.1897 32.7844 17.7024 32.7844C9.21513 32.7844 2.30566 25.8203 2.30566 17.1935C2.30566 8.56665 9.21513 1.60257 17.7024 1.60257C26.1897 1.60257 33.0991 8.56665 33.0991 17.1935Z" stroke="black" stroke-width="3"/>
<rect width="4.85546" height="13.1791" transform="matrix(0.703056 -0.711135 0.703056 0.711135 27.0127 30.0638)" fill="black"/>
</svg>
