<?xml version="1.0" encoding="utf-8"?>
<!-- Generator: Adobe Illustrator 19.2.1, SVG Export Plug-In . SVG Version: 6.00 Build 0)  -->
<svg version="1.1" id="layer" xmlns="http://www.w3.org/2000/svg" xmlns:xlink="http://www.w3.org/1999/xlink" x="0px" y="0px"
	 viewBox="0 0 652 652" style="enable-background:new 0 0 652 652;" xml:space="preserve">
<style type="text/css">
	.st0{fill:#3B77BC;}
</style>
<path class="st0" d="M192.9,345.5l6.7-9.1c4.6,5,11.6,9.1,20.8,9.1c9.6,0,13.3-4.6,13.3-9.1c0-13.7-38.3-5.4-38.3-29.5
	c0-10.8,9.6-19.5,24.1-19.5c10,0,18.7,3.3,24.5,9.1l-6.7,8.7c-5.4-5.4-12.1-7.5-19.1-7.5c-6.7,0-11.2,3.3-11.2,8.3
	c0,12.5,38.3,4.6,38.3,29.1c0,10.8-7.9,20.4-25.4,20.4C207.9,356.4,198.7,351.8,192.9,345.5 M288.1,355.1v-29.9c0-7.5-3.7-10-9.6-10
	c-5.4,0-10,3.3-12.1,6.2v33.3h-10.4v-47.4h10.4v6.2c3.3-3.7,9.6-7.5,17-7.5c10.4,0,15.4,5.4,15.4,15.4v33.7H288.1z M340.9,355.1
	v-5.4c-3.7,4.2-9.1,6.2-15.4,6.2c-7.9,0-16.6-5.4-16.6-15.8c0-11.2,8.7-15.8,16.6-15.8c6.7,0,12.1,2.1,15.4,6.2v-7.1
	c0-5.4-4.6-8.7-11.2-8.7c-5.4,0-10,2.1-14.1,6.2l-4.2-7.1c5.4-5.4,12.5-7.9,20-7.9c10.8,0,20,4.6,20,17v32H340.9z M340.9,344.3v-7.5
	c-2.5-3.3-7.1-5-11.2-5c-5.8,0-10.4,3.3-10.4,8.7s4.6,8.7,10.4,8.7C334.3,348.9,338.8,347.2,340.9,344.3L340.9,344.3z M375.4,348.5
	v24.9H365v-66.1h10.4v6.7c3.7-4.6,9.1-7.9,15.4-7.9c12.5,0,21.2,9.1,21.2,24.9s-8.7,24.9-21.2,24.9
	C384.6,356.4,379.2,353.4,375.4,348.5 M401.2,331c0-9.1-5.4-15.8-13.7-15.8c-5,0-10,2.9-12.1,6.2v18.7c2.1,3.7,7.5,6.7,12.1,6.7
	C395.8,346.8,401.2,340.6,401.2,331 M418.2,345.5l6.7-9.1c4.6,5,11.6,9.1,20.8,9.1c9.6,0,13.3-4.6,13.3-9.1
	c0-13.7-38.3-5.4-38.3-29.5c0-10.8,9.6-19.5,24.1-19.5c10,0,18.7,3.3,24.5,9.1l-6.7,8.7c-5.4-5.4-12.1-7.5-19.1-7.5
	c-6.7,0-11.2,3.3-11.2,8.3c0,12.5,38.3,4.6,38.3,29.1c0,10.8-7.9,20.4-25.4,20.4C432.8,356.4,424.1,351.8,418.2,345.5 M478.1,331
	c0-14.6,10-24.9,24.5-24.9c9.6,0,15,4.2,18.3,8.3l-6.7,6.2c-2.5-3.7-6.2-5.4-10.8-5.4c-8.7,0-14.6,6.7-14.6,15.8
	c0,9.1,5.8,15.8,14.6,15.8c4.6,0,8.3-2.1,10.8-5.8l6.7,6.2c-3.3,4.6-8.7,8.3-18.3,8.3C488.1,356.4,478.1,345.5,478.1,331
	 M559.6,355.1v-5.4c-3.7,4.2-9.1,6.2-15.4,6.2c-7.9,0-16.6-5.4-16.6-15.8c0-11.2,8.7-15.8,16.6-15.8c6.7,0,12.1,2.1,15.4,6.2v-7.1
	c0-5.4-4.6-8.7-11.2-8.7c-5.4,0-10,2.1-14.1,6.2l-4.2-7.1c5.4-5.4,12.5-7.9,20-7.9c10.8,0,20,4.6,20,17v32H559.6z M559.6,344.3v-7.5
	c-2.5-3.3-7.1-5-11.2-5c-5.8,0-10.4,3.3-10.4,8.7s4.6,8.7,10.4,8.7C552.6,348.9,557.1,347.2,559.6,344.3L559.6,344.3z M615.8,355.1
	v-29.9c0-7.5-3.7-10-9.6-10c-5.4,0-10,3.3-12.1,6.2v33.3h-10.8v-47.4h10.4v6.2c3.3-3.7,9.6-7.5,17-7.5c10.4,0,15.4,5.4,15.4,15.4
	v33.7H615.8z M88.5,263.6c-34.6,0-62.4,27.8-62.4,62.4s27.8,62.4,62.4,62.4s62.4-27.8,62.4-62.4S123.1,263.6,88.5,263.6 M88.5,384.2
	c-32,0-58.2-26.1-58.2-58.2s26.1-58.2,58.2-58.2s58.2,26.1,58.2,58.2S120.5,384.2,88.5,384.2 M80.5,301.1H67.4
	c-1.9,0-3.9,1.5-3.9,3.9V318c0,1.9,1.5,3.9,3.9,3.9h13.1c1.9,0,3.9-1.5,3.9-3.9v-13.1C84,302.6,82.4,301.1,80.5,301.1 M80.5,330.2
	H67.4c-1.9,0-3.9,1.5-3.9,3.9v13.1c0,1.9,1.5,3.9,3.9,3.9h13.1c1.9,0,3.9-1.5,3.9-3.9V334C84,331.7,82.4,330.2,80.5,330.2
	 M109.6,301.1H96.5c-1.9,0-3.8,1.5-3.8,3.9V318c0,1.9,1.5,3.9,3.8,3.9h13.1c1.9,0,3.9-1.5,3.9-3.9v-13.1
	C113.5,302.6,111.9,301.1,109.6,301.1"/>
</svg>
