<?xml version="1.0" encoding="utf-8"?>
<!-- Generator: Adobe Illustrator 24.1.3, SVG Export Plug-In . SVG Version: 6.00 Build 0)  -->
<svg version="1.1" id="Layer_1" xmlns="http://www.w3.org/2000/svg" xmlns:xlink="http://www.w3.org/1999/xlink" x="0px" y="0px"
	 viewBox="0 0 50 50" style="enable-background:new 0 0 50 50;" xml:space="preserve">
<style type="text/css">
	.st0{fill:#A02700;}
</style>
<path class="st0" d="M25.1,0C11.4,0,0.2,11.1,0.2,24.9c0,13.7,11.1,24.9,24.9,24.9C38.8,49.8,50,38.6,50,24.9C50,11.1,38.8,0,25.1,0
	C25.1,0,25.1,0,25.1,0z M36.5,35.9c-0.4,0.7-1.4,1-2.1,0.5C28.5,32.8,21.2,32,12.5,34c-0.8,0.2-1.7-0.3-1.9-1.2
	C10.5,32,11,31.2,11.8,31c9.5-2.2,17.6-1.2,24.2,2.8C36.7,34.2,37,35.1,36.5,35.9z M39.6,29.1c-0.6,0.9-1.8,1.2-2.7,0.6
	c-6.7-4.1-16.9-5.3-24.8-2.9c-1,0.3-2.1-0.3-2.4-1.3c-0.3-1,0.3-2.1,1.3-2.4c9-2.7,20.3-1.4,27.9,3.3C39.8,27,40.1,28.2,39.6,29.1
	L39.6,29.1z M39.8,22.1c-8-4.8-21.2-5.2-28.9-2.9c-1.2,0.4-2.5-0.3-2.9-1.6c-0.4-1.2,0.3-2.5,1.6-2.9c8.8-2.7,23.4-2.2,32.6,3.3
	c1.1,0.7,1.5,2.1,0.8,3.2C42.4,22.3,40.9,22.7,39.8,22.1L39.8,22.1z"/>
</svg>
