<?xml version="1.0" encoding="utf-8"?>
<!-- Generator: Adobe Illustrator 16.0.0, SVG Export Plug-In . SVG Version: 6.00 Build 0)  -->
<!DOCTYPE svg PUBLIC "-//W3C//DTD SVG 1.1//EN" "http://www.w3.org/Graphics/SVG/1.1/DTD/svg11.dtd">
<svg version="1.1" id="Layer_1" xmlns="http://www.w3.org/2000/svg" xmlns:xlink="http://www.w3.org/1999/xlink" x="0px" y="0px"
	 width="718px" height="173px" viewBox="0 0 718 173" enable-background="new 0 0 718 173" xml:space="preserve">
<path fill-rule="evenodd" clip-rule="evenodd" d="M355.521,154.712c-2.806-1.176-5.444-2.281-8.268-3.465
	c-1.593,1.075-3.542,1.887-5.704,2.126c-3.357,0.372-6.486-0.285-9.301-2.169c-5.209-3.486-5.648-10.037-0.958-14.198
	c2.639-2.34,5.834-3.473,9.246-4.078c4.97-0.882,9.775-0.372,14.361,1.798c1.944,0.921,3.691,2.134,5.134,3.749
	c3.227,3.612,3.871,8.48,1.693,12.807c-0.258,0.512-0.533,1.015-0.867,1.647c1.041,0.273,1.904,0,2.75-0.205
	c2.262-0.549,4.309-1.599,6.135-3.005c2.365-1.82,4.672-3.718,6.947-5.648c2.527-2.144,5.117-4.187,8.051-5.758
	c4.648-2.489,9.566-3.886,14.881-3.648c2.209,0.099,4.352,0.551,6.299,1.617c1.016,0.559,2.02,1.225,2.846,2.03
	c3.094,3.016,3.064,7.339,0.008,10.394c-1.148,1.147-2.504,1.997-4.025,2.548c-4.248,1.536-8.473,1.42-12.639-0.31
	c-1.498-0.622-2.813-1.529-3.818-2.824c-1.02-1.313-1.324-2.75-0.768-4.361c0.254-0.737,0.711-0.981,1.447-0.934
	c1.357,0.089,2.309,0.75,2.875,1.966c0.316,0.676,0.566,1.383,0.895,2.051c0.938,1.909,2.463,3.063,4.574,3.351
	c3.059,0.417,5.955-0.078,8.596-1.736c0.537-0.337,1.047-0.744,1.494-1.195c2.279-2.306,2.299-5.479-0.104-7.64
	c-1.004-0.902-2.266-1.622-3.531-2.104c-3.355-1.275-6.795-1.145-10.213-0.148c-2.744,0.8-5.246,2.112-7.529,3.802
	c-1.926,1.426-3.785,2.95-5.605,4.509c-2.803,2.398-5.674,4.688-8.924,6.458c-3.576,1.945-7.361,3.103-11.477,2.941
	c-0.607-0.024-1.107,0.079-1.594,0.527c-5.241,4.832-11.515,6.673-18.532,6.361c-6.326-0.281-12.127-2.225-17.526-5.461
	c-4.509-2.703-8.515-6.035-12.246-9.725c-1.553-1.535-3.139-3.055-4.842-4.416c-6.946-5.553-15.005-5.569-22.041-0.126
	c-0.421,0.326-0.814,0.69-1.243,1.006c-0.718,0.529-1.303,0.527-1.67-0.002c-0.441-0.638-0.09-1.093,0.384-1.513
	c2.549-2.259,5.375-4.037,8.714-4.86c4.577-1.128,9.109-0.664,13.592,0.556c4.601,1.252,8.71,3.51,12.359,6.525
	c2.79,2.306,5.351,4.888,8.075,7.276c2.12,1.859,4.173,3.868,6.539,5.362c6.95,4.389,14.235,4.646,21.624,1.061
	C353.091,156.935,354.464,156.015,355.521,154.712z M349.184,149.734c2.205,1.428,4.505,2.228,6.901,2.771
	c1.245,0.283,1.349,0.203,2.012-0.967c2.727-4.815,1.492-10.723-2.989-13.966c-0.981-0.711-2.077-1.324-3.205-1.762
	c-4.833-1.876-9.684-1.747-14.495,0.125c-1.509,0.587-2.813,1.499-3.906,2.705c-3.311,3.653-2.606,10.719,3.531,12.465
	c2.602,0.74,5.17,0.504,7.647-0.58c0.411-0.18,0.769-0.48,1.187-0.748c-0.559-0.746-1.082-1.349-1.499-2.019
	c-0.993-1.595-1.17-3.302-0.434-5.042c0.575-1.361,1.542-2.302,3.106-2.4c1.619-0.102,2.766,0.696,3.514,2.054
	c0.981,1.78,0.83,3.593-0.084,5.353C350.132,148.374,349.68,148.967,349.184,149.734z M347.511,148.445
	c1.326-1.305,1.834-2.525,1.686-3.903c-0.147-1.356-1.038-2.347-2.032-2.259c-0.922,0.082-1.635,1.093-1.672,2.408
	C345.449,146.274,346.296,147.387,347.511,148.445z"/>
<path fill-rule="evenodd" clip-rule="evenodd" fill="none" d="M18.22,275.646c3.69,0.017,7.251-0.223,10.793,0.41
	c4.56,0.814,7.262,3.518,8.272,8.004c0.475,2.111,0.6,4.234,0.176,6.349c-0.861,4.285-3.503,6.959-7.669,8.141
	c-1.868,0.529-3.792,0.604-5.713,0.392c-3.245-0.356-5.122-2.117-5.687-5.337c-0.175-0.994-0.268-2.014-0.274-3.023
	c-0.03-4.639-0.018-9.277-0.014-13.916C18.103,276.406,18.16,276.147,18.22,275.646z"/>
<path fill-rule="evenodd" clip-rule="evenodd" fill="none" d="M18.195,274.545c0-6.867,0-13.557,0-20.395
	c3.225-0.032,6.36-0.312,9.425,0.604c1.583,0.473,2.884,1.421,3.8,2.789c2.309,3.449,2.931,7.182,1.505,11.12
	c-0.99,2.733-2.944,4.534-5.806,5.239C24.246,274.611,21.325,274.697,18.195,274.545z"/>
<path fill-rule="evenodd" clip-rule="evenodd" fill="none" d="M349.294,343.168c0.496-0.768,0.948-1.36,1.287-2.012
	c0.914-1.76,1.065-3.572,0.084-5.353c-0.748-1.357-1.895-2.155-3.514-2.054c-1.564,0.099-2.531,1.039-3.106,2.4
	c-0.736,1.74-0.559,3.447,0.434,5.042c0.417,0.67,0.939,1.272,1.499,2.019c-0.418,0.268-0.776,0.568-1.187,0.748
	c-2.477,1.084-5.045,1.32-7.647,0.58c-6.137-1.746-6.841-8.812-3.531-12.465c1.093-1.206,2.397-2.118,3.906-2.705
	c4.811-1.872,9.661-2.001,14.495-0.125c1.128,0.438,2.224,1.051,3.205,1.762c4.48,3.243,5.716,9.15,2.988,13.966
	c-0.663,1.17-0.767,1.25-2.012,0.967C353.799,345.396,351.499,344.596,349.294,343.168z"/>
<path fill-rule="evenodd" clip-rule="evenodd" fill="none" d="M347.621,341.879c-1.215-1.059-2.062-2.171-2.018-3.754
	c0.037-1.315,0.75-2.326,1.672-2.408c0.994-0.088,1.884,0.902,2.032,2.259C349.455,339.354,348.947,340.574,347.621,341.879z"/>
<g>
	<path d="M11.675,106.379v-0.785c1.321-0.068,2.387-0.257,3.196-0.564c0.809-0.308,1.521-0.78,2.136-1.418
		c0.729-0.729,1.219-1.652,1.47-2.77c0.25-1.115,0.376-2.848,0.376-5.195v-25.19c0-2.347-0.125-4.079-0.376-5.195
		c-0.251-1.116-0.741-2.039-1.47-2.769c-0.615-0.661-1.333-1.139-2.153-1.436c-0.82-0.296-1.88-0.479-3.179-0.547v-0.786h22.456
		c2.278,0,3.771,0.023,4.478,0.068c2.598,0.205,4.751,0.82,6.46,1.846c1.481,0.912,2.626,2.108,3.435,3.589
		c0.809,1.481,1.213,3.145,1.213,4.99c0,2.985-0.923,5.435-2.769,7.349c-0.661,0.707-1.413,1.293-2.256,1.76
		c-0.843,0.467-2.063,0.986-3.657,1.555c2.188,0.365,3.885,0.764,5.093,1.196c1.208,0.433,2.301,1.037,3.281,1.812
		c1.458,1.185,2.592,2.661,3.401,4.426c0.809,1.767,1.213,3.675,1.213,5.726c0,2.073-0.416,3.971-1.248,5.69
		c-0.832,1.721-1.988,3.104-3.469,4.153c-1.345,0.934-2.945,1.584-4.802,1.947c-1.857,0.365-4.472,0.547-7.844,0.547H11.675z
		 M26.338,60.784v20.303h2.769c1.299,0,2.643-0.091,4.033-0.273c1.208-0.182,2.182-0.398,2.922-0.649
		c0.74-0.25,1.418-0.592,2.034-1.025c1.162-0.866,2.056-1.977,2.683-3.333c0.626-1.355,0.94-2.854,0.94-4.495
		c0-1.731-0.325-3.378-0.974-4.939c-0.649-1.561-1.51-2.774-2.581-3.64c-0.935-0.752-2-1.265-3.196-1.538s-3.014-0.41-5.452-0.41
		H26.338z M26.338,82.146v14.083c0,1.709,0.12,3.088,0.359,4.135c0.239,1.049,0.632,1.938,1.179,2.666
		c1.162,1.527,3.156,2.291,5.981,2.291c3.668,0,6.568-1.003,8.699-3.008c2.13-2.006,3.196-4.74,3.196-8.203
		c0-1.982-0.331-3.822-0.991-5.521c-0.661-1.697-1.55-3.002-2.666-3.913c-2.051-1.687-5.264-2.53-9.639-2.53H26.338z"/>
	<path d="M77.391,83.359c0-3.83,0.82-7.382,2.461-10.654c1.641-3.272,4.033-6.128,7.178-8.568c2.347-1.801,4.876-3.187,7.588-4.156
		c2.711-0.969,5.446-1.454,8.203-1.454c3.509,0,6.904,0.77,10.186,2.309s6.152,3.711,8.613,6.516
		c4.01,4.561,6.016,9.748,6.016,15.563c0,2.919-0.524,5.735-1.572,8.448c-1.048,2.713-2.575,5.188-4.58,7.422
		c-2.461,2.782-5.372,4.938-8.733,6.465c-3.361,1.527-6.876,2.291-10.544,2.291c-3.623,0-7.087-0.74-10.391-2.223
		c-3.304-1.482-6.152-3.58-8.545-6.293c-1.892-2.121-3.344-4.531-4.358-7.234C77.897,89.089,77.391,86.278,77.391,83.359z
		 M85.662,83.873c0,6.614,1.8,12.189,5.4,16.726c1.618,2.03,3.333,3.507,5.144,4.43c1.812,0.924,3.902,1.386,6.272,1.386
		c2.393,0,4.495-0.457,6.306-1.369s3.538-2.394,5.178-4.446c3.6-4.56,5.4-10.181,5.4-16.863c0-3.671-0.496-7.143-1.487-10.415
		c-0.991-3.272-2.387-6.049-4.187-8.329c-1.458-1.869-3.082-3.232-4.871-4.087c-1.789-0.855-3.902-1.283-6.34-1.283
		c-2.416,0-4.506,0.422-6.272,1.266c-1.766,0.844-3.401,2.211-4.905,4.104c-1.8,2.258-3.19,5.028-4.17,8.312
		C86.152,76.587,85.662,80.11,85.662,83.873z"/>
	<path d="M151.173,83.359c0-3.83,0.82-7.382,2.461-10.654c1.641-3.272,4.033-6.128,7.178-8.568c2.347-1.801,4.876-3.187,7.588-4.156
		c2.711-0.969,5.446-1.454,8.203-1.454c3.508,0,6.905,0.77,10.186,2.309s6.152,3.711,8.613,6.516
		c4.01,4.561,6.016,9.748,6.016,15.563c0,2.919-0.525,5.735-1.572,8.448c-1.049,2.713-2.576,5.188-4.58,7.422
		c-2.461,2.782-5.373,4.938-8.732,6.465c-3.363,1.527-6.877,2.291-10.545,2.291c-3.623,0-7.087-0.74-10.391-2.223
		c-3.304-1.482-6.152-3.58-8.545-6.293c-1.892-2.121-3.344-4.531-4.358-7.234C151.68,89.089,151.173,86.278,151.173,83.359z
		 M159.445,83.873c0,6.614,1.8,12.189,5.4,16.726c1.618,2.03,3.333,3.507,5.144,4.43c1.812,0.924,3.902,1.386,6.272,1.386
		c2.393,0,4.495-0.457,6.307-1.369c1.811-0.912,3.537-2.394,5.178-4.446c3.6-4.56,5.4-10.181,5.4-16.863
		c0-3.671-0.496-7.143-1.486-10.415c-0.992-3.272-2.389-6.049-4.188-8.329c-1.459-1.869-3.082-3.232-4.871-4.087
		c-1.789-0.855-3.902-1.283-6.34-1.283c-2.416,0-4.506,0.422-6.272,1.266c-1.766,0.844-3.401,2.211-4.905,4.104
		c-1.8,2.258-3.19,5.028-4.17,8.312C159.935,76.587,159.445,80.11,159.445,83.873z"/>
	<path d="M238.013,82.59l14.458-14.355c1.436-1.413,2.329-2.375,2.683-2.888s0.53-1.077,0.53-1.692c0-1.116-0.547-1.959-1.641-2.529
		c-0.57-0.273-1.527-0.479-2.871-0.615v-0.786h14.731v0.786c-1.003,0.091-1.841,0.256-2.512,0.496
		c-0.673,0.239-1.408,0.644-2.205,1.213c-0.889,0.638-2.416,1.994-4.58,4.067l-11.074,10.63l15.757,20.097l1.948,2.496
		c1.436,1.777,2.928,3.167,4.478,4.17c0.934,0.615,1.754,1.054,2.461,1.315c0.706,0.263,1.595,0.462,2.666,0.599v0.785h-22.593
		v-0.785c1.709-0.137,2.939-0.422,3.691-0.855c0.752-0.432,1.128-1.07,1.128-1.914c0-0.91-0.468-2.072-1.401-3.486
		c-0.456-0.684-1.311-1.867-2.563-3.555c-1.254-1.686-2.313-3.053-3.179-4.102l-7.69-9.536l-2.222,2.188v11.313
		c0,2.324,0.131,4.051,0.393,5.179s0.746,2.057,1.453,2.786c0.615,0.638,1.327,1.11,2.137,1.418
		c0.808,0.308,1.873,0.496,3.195,0.564v0.785H223.35v-0.785c1.321-0.068,2.387-0.257,3.196-0.564
		c0.808-0.308,1.521-0.78,2.136-1.418c0.729-0.729,1.219-1.652,1.47-2.77c0.25-1.115,0.376-2.848,0.376-5.195v-25.19
		c0-2.347-0.126-4.079-0.376-5.195c-0.251-1.116-0.741-2.039-1.47-2.769c-0.615-0.661-1.333-1.139-2.153-1.436
		c-0.82-0.296-1.88-0.479-3.179-0.547v-0.786h21.841v0.786c-1.299,0.068-2.354,0.251-3.162,0.547
		c-0.809,0.296-1.532,0.775-2.17,1.436c-0.707,0.729-1.191,1.658-1.453,2.786s-0.393,2.854-0.393,5.178V82.59z"/>
	<path d="M324.43,106.379v-0.82c2.301,0,4.078-0.648,5.332-1.947c0.706-0.729,1.19-1.658,1.452-2.786s0.394-2.854,0.394-5.179
		v-25.19c0-2.415-0.143-4.198-0.427-5.349c-0.286-1.15-0.815-2.09-1.59-2.82c-0.639-0.592-1.35-1.025-2.137-1.299
		c-0.785-0.273-1.794-0.433-3.024-0.479v-0.786h21.841v0.786c-1.254,0.068-2.279,0.239-3.076,0.513
		c-0.798,0.273-1.504,0.707-2.119,1.299c-0.775,0.752-1.299,1.698-1.572,2.837c-0.273,1.14-0.41,2.905-0.41,5.298v19.721
		c0,3.031,0.079,5.287,0.239,6.768c0.159,1.482,0.467,2.689,0.923,3.623c0.797,1.641,1.982,2.844,3.555,3.606
		c1.572,0.764,3.657,1.146,6.255,1.146c2.711,0,4.995-0.359,6.853-1.077s3.378-1.829,4.563-3.333
		c0.797-1.025,1.452-2.188,1.966-3.486c0.512-1.299,0.984-3.008,1.418-5.127l0.82,0.068l-0.444,14.014H324.43z"/>
	<path d="M385.736,83.359c0-3.83,0.82-7.382,2.461-10.654c1.641-3.272,4.033-6.128,7.178-8.568c2.347-1.801,4.876-3.187,7.588-4.156
		c2.711-0.969,5.445-1.454,8.203-1.454c3.509,0,6.904,0.77,10.186,2.309s6.152,3.711,8.613,6.516
		c4.01,4.561,6.016,9.748,6.016,15.563c0,2.919-0.524,5.735-1.572,8.448c-1.049,2.713-2.575,5.188-4.58,7.422
		c-2.461,2.782-5.372,4.938-8.732,6.465c-3.362,1.527-6.877,2.291-10.545,2.291c-3.623,0-7.087-0.74-10.391-2.223
		c-3.305-1.482-6.152-3.58-8.545-6.293c-1.892-2.121-3.345-4.531-4.357-7.234C386.243,89.089,385.736,86.278,385.736,83.359z
		 M394.008,83.873c0,6.614,1.8,12.189,5.4,16.726c1.617,2.03,3.332,3.507,5.145,4.43c1.811,0.924,3.901,1.386,6.271,1.386
		c2.393,0,4.494-0.457,6.307-1.369c1.811-0.912,3.537-2.394,5.178-4.446c3.6-4.56,5.4-10.181,5.4-16.863
		c0-3.671-0.496-7.143-1.486-10.415c-0.992-3.272-2.388-6.049-4.188-8.329c-1.459-1.869-3.082-3.232-4.871-4.087
		c-1.789-0.855-3.902-1.283-6.34-1.283c-2.416,0-4.507,0.422-6.271,1.266c-1.767,0.844-3.401,2.211-4.905,4.104
		c-1.801,2.258-3.19,5.028-4.17,8.312C394.497,76.587,394.008,80.11,394.008,83.873z"/>
	<path d="M479.275,59.724v0.786c-1.299,0.068-2.358,0.251-3.179,0.547c-0.82,0.296-1.538,0.775-2.153,1.436
		c-0.752,0.775-1.248,1.732-1.486,2.871c-0.24,1.14-0.359,3.099-0.359,5.879v19.345c0,3.145,0.119,5.418,0.359,6.819
		c0.238,1.401,0.723,2.694,1.452,3.88c1.094,1.8,2.444,3.104,4.05,3.913c1.607,0.81,3.629,1.214,6.067,1.214
		c2.369,0,4.632-0.359,6.784-1.077c2.154-0.718,3.948-1.714,5.384-2.991c0.889-0.797,1.543-1.662,1.966-2.598
		c0.421-0.934,0.7-2.119,0.837-3.555c0.091-0.934,0.137-3.145,0.137-6.631V70.457c0-2.347-0.132-4.079-0.394-5.195
		c-0.262-1.116-0.746-2.039-1.452-2.769c-0.639-0.661-1.362-1.139-2.171-1.436c-0.809-0.296-1.862-0.479-3.161-0.547v-0.786h15.757
		v0.786c-1.299,0.068-2.354,0.251-3.162,0.547c-0.809,0.296-1.532,0.775-2.17,1.436c-0.707,0.729-1.191,1.658-1.453,2.786
		s-0.393,2.854-0.393,5.178v21.567c0,3.191-0.245,5.543-0.734,7.059c-0.491,1.516-1.465,2.9-2.923,4.152
		c-3.327,2.871-8.078,4.307-14.253,4.307c-6.449,0-11.2-1.355-14.253-4.066c-1.982-1.732-3.168-4.011-3.555-6.836
		c-0.137-1.003-0.205-2.814-0.205-5.436V70.457c0-2.347-0.126-4.079-0.376-5.195c-0.251-1.116-0.741-2.039-1.47-2.769
		c-0.615-0.661-1.328-1.139-2.136-1.436c-0.81-0.296-1.875-0.479-3.196-0.547v-0.786H479.275z"/>
	<path d="M536.207,65.911v29.736c0,2.348,0.131,4.08,0.393,5.195c0.262,1.117,0.746,2.04,1.453,2.77
		c0.638,0.66,1.361,1.139,2.17,1.436c0.809,0.296,1.863,0.479,3.162,0.547v0.785h-15.757v-0.785
		c1.299-0.068,2.353-0.251,3.161-0.547c0.809-0.297,1.532-0.775,2.171-1.436c0.706-0.729,1.19-1.658,1.452-2.786
		s0.394-2.854,0.394-5.179V70.422c0-2.301-0.132-4.016-0.394-5.144s-0.746-2.056-1.452-2.786c-0.615-0.661-1.328-1.139-2.136-1.436
		c-0.81-0.296-1.875-0.479-3.196-0.547v-0.786h13.159l27.754,35.411V70.457c0-2.347-0.132-4.079-0.393-5.195
		c-0.263-1.116-0.747-2.039-1.453-2.769c-0.639-0.661-1.362-1.139-2.17-1.436c-0.81-0.296-1.863-0.479-3.162-0.547v-0.786h15.757
		v0.786c-2.279,0-4.057,0.661-5.332,1.982c-0.707,0.729-1.191,1.658-1.452,2.786c-0.263,1.128-0.394,2.843-0.394,5.144v35.957
		h-1.538L536.207,65.911z"/>
	<path d="M640.307,59.724l0.41,14.868l-0.786,0.068c-1.572-5.059-3.589-8.824-6.05-11.296c-2.461-2.472-5.435-3.708-8.921-3.708
		c-2.712,0-5.041,0.553-6.99,1.658c-1.947,1.105-3.766,2.9-5.451,5.383c-3.418,5.082-5.127,10.892-5.127,17.432
		c0,3.121,0.41,6.066,1.23,8.835s2.017,5.212,3.589,7.331c3.053,4.102,6.778,6.152,11.177,6.152c1.731,0,3.36-0.363,4.888-1.094
		c1.526-0.729,2.779-1.73,3.76-3.008c1.344-1.777,2.017-3.885,2.017-6.322c0-2.256-0.61-3.885-1.828-4.889
		c-1.22-1.002-3.23-1.504-6.033-1.504v-0.785h21.807v0.785c-2.006,0.184-3.413,0.462-4.221,0.838
		c-0.81,0.376-1.408,1.02-1.795,1.932c-0.434,1.002-0.649,2.996-0.649,5.98c0,0.82,0.045,2.098,0.137,3.828l0.068,0.787
		c-0.866-0.319-1.504-0.479-1.914-0.479c-0.502,0-1.14,0.262-1.914,0.785c-1.982,1.367-4.284,2.416-6.904,3.145
		c-2.621,0.729-5.39,1.094-8.306,1.094c-4.011,0-7.628-0.684-10.852-2.051c-3.226-1.367-5.84-3.326-7.845-5.879
		c-1.504-1.914-2.661-4.191-3.47-6.836c-0.809-2.643-1.213-5.445-1.213-8.408c0-4.078,0.729-7.872,2.188-11.381
		c1.458-3.509,3.509-6.403,6.152-8.682c2.164-1.846,4.659-3.27,7.485-4.272c2.825-1.002,5.811-1.504,8.955-1.504
		c1.822,0,3.515,0.171,5.075,0.513s3.219,0.9,4.974,1.675l2.017,0.923c0.501,0.205,0.957,0.308,1.367,0.308
		c0.911,0,1.606-0.74,2.085-2.222H640.307z"/>
	<path d="M703.869,59.724l0.581,11.279l-0.786,0.034c-0.297-1.914-0.786-3.498-1.47-4.751c-0.684-1.253-1.675-2.358-2.974-3.315
		c-1.071-0.797-2.336-1.361-3.794-1.692c-1.459-0.33-3.396-0.496-5.811-0.496h-7.827v20.508h2.051c2.073,0,3.634-0.137,4.683-0.41
		c1.048-0.273,1.902-0.763,2.563-1.47c0.638-0.661,1.111-1.441,1.418-2.341c0.309-0.9,0.564-2.227,0.77-3.982l0.786,0.034
		l-0.137,18.321h-0.786c-0.205-1.755-0.508-3.168-0.906-4.238c-0.398-1.071-0.951-1.982-1.657-2.734
		c-0.684-0.729-1.572-1.265-2.666-1.607s-2.484-0.513-4.17-0.513h-1.948v7.827c0,3.123,0.079,5.396,0.239,6.819
		c0.159,1.425,0.467,2.614,0.923,3.571c0.774,1.641,1.953,2.844,3.537,3.606c1.584,0.764,3.675,1.146,6.272,1.146
		c2.734,0,5.024-0.348,6.87-1.043s3.35-1.771,4.512-3.23c0.82-0.979,1.486-2.096,2-3.35c0.512-1.252,0.984-2.904,1.418-4.955
		l0.786,0.033l-0.444,13.604h-40.776v-0.785c1.299-0.068,2.353-0.251,3.161-0.547c0.809-0.297,1.532-0.775,2.171-1.436
		c0.706-0.729,1.19-1.658,1.452-2.786s0.394-2.854,0.394-5.179v-25.19c0-2.324-0.132-4.05-0.394-5.178s-0.746-2.056-1.452-2.786
		c-0.615-0.661-1.328-1.139-2.136-1.436c-0.81-0.296-1.875-0.479-3.196-0.547v-0.786H703.869z"/>
</g>
<g>
	<path d="M319.929,10.04c-0.779,0-1.614,0.025-2.505,0.074c-1.905,0.099-3.325,0.34-4.258,0.724
		c-0.934,0.384-1.704,1.045-2.31,1.985c-0.557,0.866-0.983,2.041-1.28,3.525l-0.427-0.037l0.334-6.847h25.104l0.334,6.847
		l-0.427,0.037c-0.334-1.719-0.857-3.021-1.568-3.906c-0.711-0.884-1.748-1.518-3.108-1.902c-1.15-0.334-3.099-0.501-5.845-0.501
		v18.926c0,1.262,0.071,2.199,0.213,2.811c0.142,0.612,0.405,1.117,0.789,1.512c0.346,0.359,0.739,0.619,1.178,0.779
		c0.439,0.161,1.011,0.26,1.716,0.297v0.427h-11.856v-0.427c0.717-0.037,1.295-0.136,1.735-0.297
		c0.439-0.161,0.832-0.42,1.178-0.779c0.383-0.396,0.646-0.896,0.789-1.503c0.142-0.606,0.213-1.546,0.213-2.82V10.04z"/>
	<path d="M353.191,21.247h13.174v-5.956c0-1.274-0.072-2.214-0.214-2.82c-0.143-0.606-0.405-1.107-0.788-1.503
		c-0.348-0.358-0.74-0.618-1.179-0.779c-0.439-0.161-1.018-0.26-1.735-0.297V9.464h11.857v0.427
		c-0.705,0.037-1.277,0.136-1.717,0.297c-0.439,0.161-0.832,0.421-1.178,0.779c-0.385,0.396-0.646,0.9-0.789,1.512
		s-0.213,1.549-0.213,2.811v13.675c0,1.262,0.07,2.196,0.213,2.802c0.143,0.606,0.404,1.113,0.789,1.521
		c0.346,0.347,0.738,0.603,1.178,0.77s1.012,0.269,1.717,0.306v0.427h-11.857v-0.427c0.718-0.037,1.296-0.139,1.735-0.306
		c0.438-0.167,0.831-0.423,1.179-0.77c0.383-0.396,0.646-0.896,0.788-1.503c0.142-0.606,0.214-1.546,0.214-2.82v-6.847h-13.174
		v6.847c0,1.262,0.071,2.199,0.213,2.811c0.142,0.612,0.405,1.117,0.789,1.512c0.334,0.347,0.72,0.603,1.16,0.77
		c0.439,0.167,1.017,0.269,1.735,0.306v0.427h-11.856v-0.427c0.717-0.037,1.295-0.139,1.735-0.306
		c0.439-0.167,0.826-0.423,1.16-0.77c0.396-0.396,0.662-0.896,0.798-1.503c0.136-0.606,0.204-1.546,0.204-2.82V15.291
		c0-1.274-0.068-2.214-0.204-2.82c-0.136-0.606-0.402-1.107-0.798-1.503c-0.334-0.358-0.724-0.618-1.169-0.779
		c-0.445-0.161-1.021-0.26-1.726-0.297V9.464h11.856v0.427c-0.705,0.037-1.277,0.136-1.716,0.297
		c-0.439,0.161-0.832,0.421-1.178,0.779c-0.384,0.396-0.646,0.9-0.789,1.512c-0.143,0.612-0.213,1.549-0.213,2.811V21.247z"/>
	<path d="M405.323,9.464l0.315,6.123l-0.427,0.019c-0.161-1.039-0.427-1.898-0.798-2.579c-0.371-0.68-0.909-1.28-1.614-1.8
		c-0.582-0.433-1.269-0.739-2.06-0.918c-0.792-0.179-1.844-0.269-3.154-0.269h-4.249v11.133h1.113c1.125,0,1.973-0.074,2.542-0.223
		c0.568-0.148,1.032-0.414,1.392-0.798c0.346-0.358,0.604-0.782,0.77-1.271c0.168-0.488,0.307-1.209,0.418-2.162l0.427,0.019
		l-0.074,9.945h-0.427c-0.111-0.952-0.275-1.719-0.492-2.301c-0.216-0.581-0.517-1.076-0.899-1.484
		c-0.371-0.396-0.854-0.687-1.447-0.872s-1.349-0.278-2.264-0.278h-1.058v4.249c0,1.695,0.043,2.929,0.13,3.702
		c0.086,0.773,0.253,1.419,0.501,1.939c0.42,0.891,1.061,1.543,1.92,1.958c0.86,0.415,1.995,0.622,3.405,0.622
		c1.484,0,2.728-0.188,3.729-0.566c1.002-0.377,1.818-0.961,2.449-1.753c0.445-0.532,0.807-1.138,1.086-1.818
		c0.277-0.68,0.534-1.577,0.77-2.69l0.427,0.019l-0.241,7.385h-22.136v-0.427c0.705-0.037,1.277-0.136,1.716-0.297
		c0.439-0.161,0.832-0.42,1.179-0.779c0.383-0.396,0.646-0.9,0.788-1.512c0.143-0.612,0.214-1.549,0.214-2.811V15.291
		c0-1.262-0.071-2.199-0.214-2.811c-0.142-0.612-0.405-1.116-0.788-1.512c-0.334-0.358-0.721-0.618-1.159-0.779
		c-0.439-0.161-1.019-0.26-1.735-0.297V9.464H405.323z"/>
</g>
</svg>
