<svg width="55" height="45" viewBox="0 0 55 45" fill="none" xmlns="http://www.w3.org/2000/svg">
<path d="M54.8807 5.28798C52.862 6.18122 50.6914 6.78863 48.4136 7.0566C50.736 5.66314 52.5225 3.45684 53.3622 0.830712C51.1916 2.11698 48.7799 3.05488 46.2163 3.56403C44.1618 1.37559 41.232 0 37.9984 0C31.7815 0 26.7347 5.04681 26.7347 11.2638C26.7347 12.1481 26.8329 13.0056 27.0295 13.8274C17.6683 13.3629 9.37009 8.87881 3.82307 2.06338C2.84944 3.72481 2.29563 5.66314 2.29563 7.72653C2.29563 11.63 4.27862 15.0779 7.30671 17.0966C5.4577 17.0341 3.72481 16.5339 2.2063 15.6853C2.2063 15.7389 2.2063 15.7836 2.2063 15.8282C2.2063 21.2859 6.08297 25.8414 11.237 26.8687C10.2901 27.1277 9.29863 27.2706 8.27141 27.2706C7.54788 27.2706 6.83329 27.1992 6.15442 27.0652C7.58361 31.5403 11.7461 34.7917 16.6679 34.89C12.818 37.9091 7.95877 39.7045 2.68865 39.7045C1.77755 39.7045 0.884308 39.6509 0 39.5438C4.98428 42.7416 10.8975 44.6084 17.2574 44.6084C37.9716 44.6084 49.2979 27.4493 49.2979 12.5679C49.2979 12.0855 49.2801 11.5943 49.2622 11.1119C51.4596 9.52194 53.3711 7.53895 54.8807 5.28798Z" fill="white"/>
</svg>
