<svg width="69" height="69" viewBox="0 0 69 69" fill="none" xmlns="http://www.w3.org/2000/svg">
<path d="M60.375 18.4545C58.4714 19.2968 56.4247 19.8695 54.2769 20.1222C56.4668 18.8082 58.1514 16.7278 58.9431 14.2515C56.8964 15.4644 54.6222 16.3488 52.2048 16.8289C50.2676 14.7653 47.5049 13.4681 44.4558 13.4681C38.5935 13.4681 33.8346 18.227 33.8346 24.0894C33.8346 24.9232 33.9272 25.7318 34.1125 26.5067C25.2854 26.0687 17.4606 21.8405 12.23 15.4138C11.3119 16.9805 10.7897 18.8082 10.7897 20.7539C10.7897 24.4347 12.6595 27.6859 15.5149 29.5895C13.7714 29.5305 12.1373 29.0588 10.7054 28.2587C10.7054 28.3092 10.7054 28.3513 10.7054 28.3934C10.7054 33.5398 14.361 37.8354 19.2209 38.8041C18.3281 39.0483 17.3932 39.1831 16.4246 39.1831C15.7423 39.1831 15.0685 39.1157 14.4283 38.9894C15.776 43.2092 19.7011 46.2751 24.342 46.3678C20.7118 49.2147 16.1298 50.9077 11.1603 50.9077C10.3011 50.9077 9.45886 50.8572 8.625 50.7561C13.325 53.7715 18.9009 55.5319 24.8979 55.5319C44.4305 55.5319 55.1107 39.3516 55.1107 25.3191C55.1107 24.8643 55.0939 24.401 55.077 23.9462C57.149 22.4469 58.9515 20.577 60.375 18.4545Z" fill="#B22225"/>
</svg>
