<svg width="45" height="44" viewBox="0 0 45 44" fill="none" xmlns="http://www.w3.org/2000/svg">
<g clip-path="url(#clip0_25_15)">
<path d="M18.9454 17.1105L28.7226 21.9908L18.9454 26.8895V17.1105ZM44.6121 9.16667V34.8333C44.6121 39.8952 40.5091 44 35.4454 44H9.77873C4.71689 44 0.612061 39.8952 0.612061 34.8333V9.16667C0.612061 4.10483 4.71689 0 9.77873 0H35.4454C40.5091 0 44.6121 4.10483 44.6121 9.16667ZM37.2787 22C37.2421 14.4412 36.6866 11.55 31.9199 11.2255C27.5144 10.9248 17.7042 10.9267 13.3061 11.2255C8.54306 11.55 7.98206 14.4283 7.94539 22C7.98206 29.5588 8.53756 32.45 13.3042 32.7745C17.7024 33.0733 27.5126 33.0752 31.9181 32.7745C36.6811 32.45 37.2421 29.5717 37.2787 22Z" fill="white"/>
</g>
<defs>
<clipPath id="clip0_25_15">
<rect width="44" height="44" fill="white" transform="translate(0.612061)"/>
</clipPath>
</defs>
</svg>
