<svg width="56" height="56" viewBox="0 0 56 56" fill="none" xmlns="http://www.w3.org/2000/svg">
<g clip-path="url(#clip0_25_9)">
<path d="M23.3333 21.777L35.777 27.9883L23.3333 34.223V21.777ZM56 11.6667V44.3333C56 50.7757 50.778 56 44.3333 56H11.6667C5.22433 56 0 50.7757 0 44.3333V11.6667C0 5.22433 5.22433 0 11.6667 0H44.3333C50.778 0 56 5.22433 56 11.6667ZM46.6667 28C46.62 18.3797 45.913 14.7 39.8463 14.287C34.2393 13.9043 21.7537 13.9067 16.156 14.287C10.094 14.7 9.38 18.3633 9.33333 28C9.38 37.6203 10.087 41.3 16.1537 41.713C21.7513 42.0933 34.237 42.0957 39.844 41.713C45.906 41.3 46.62 37.6367 46.6667 28Z" fill="#B22225"/>
</g>
<defs>
<clipPath id="clip0_25_9">
<rect width="56" height="56" fill="white"/>
</clipPath>
</defs>
</svg>
