<?xml version="1.0" encoding="utf-8"?>
<!-- Generator: Adobe Illustrator 25.2.0, SVG Export Plug-In . SVG Version: 6.00 Build 0)  -->
<svg version="1.1" id="Layer_1" xmlns="http://www.w3.org/2000/svg" xmlns:xlink="http://www.w3.org/1999/xlink" x="0px" y="0px"
	 viewBox="0 0 1020 295" style="enable-background:new 0 0 1020 295;" xml:space="preserve">
<style type="text/css">
	.st0{fill:#B30100;}
	.st1{fill:#FFFFFF;}
	.st2{fill:#B30000;}
</style>
<g>
	<path class="st0" d="M242.3,234.7c-2.7,0-5.5-0.2-8.4-0.7c-37.3-6.3-47-50.5-44-86.4c3.6-42.5,25.5-87.7,59.1-87.7
		c3.7,0,7.6,0.6,11.4,1.7c16.7,4.9,29.4,18.2,36.7,38.5c6.4,17.7,8.2,39.5,5.1,61.2c-2.9,19.7-9.7,37.7-19.2,50.6
		C272.1,226.9,258,234.7,242.3,234.7C242.3,234.7,242.3,234.7,242.3,234.7z M250,101.4c-15.8,0-28.6,28.5-30.7,55.2
		c-1.5,19.5,2.5,41.3,18.3,43.8c1,0.2,2.1,0.2,3.1,0.2c16.7,0,27.7-21.8,31.1-43.4c3.7-23.3-1-49.8-17.3-55.1
		C253,101.7,251.5,101.4,250,101.4z"/>
	<path class="st1" d="M249,63.4c3.4,0,6.8,0.5,10.4,1.6c63.9,18.9,48.6,166.2-17.1,166.2c-2.5,0-5.1-0.2-7.8-0.7
		C166.2,219,189.9,63.4,249,63.4 M240.7,204.2c37.5,0,50.5-93.7,14.9-105.3c-1.9-0.6-3.8-0.9-5.6-0.9c-33.4,0-51.1,99.9-13,105.9
		C238.3,204.1,239.5,204.2,240.7,204.2 M249,56.4c-16.8,0-32.4,10.6-44,29.8c-9.9,16.3-16.7,38.6-18.5,61.1
		c-1.8,21.4,0.9,41.7,7.6,57.1c8.1,18.6,21.7,30,39.3,33c3,0.5,6,0.8,8.9,0.8c16.9,0,32-8.4,43.6-24.1c9.8-13.4,16.9-31.9,19.8-52.2
		c3.2-22.3,1.4-44.7-5.2-62.9c-7.7-21.4-21.2-35.4-39-40.7C257.3,57.1,253.1,56.4,249,56.4L249,56.4z M240.7,197.2
		c-0.8,0-1.7-0.1-2.6-0.2c-13.5-2.1-16.7-22.9-15.3-40c1-13.4,4.8-26.9,10.2-37c5.1-9.5,11.3-15,17-15c1.1,0,2.2,0.2,3.4,0.6
		c7.8,2.6,11.7,10.9,13.7,17.5c2.8,9.5,3.2,21.5,1.3,33.7C265.2,176.2,255.3,197.2,240.7,197.2L240.7,197.2z"/>
</g>
<g>
	<path class="st0" d="M150.3,233.8c-26.8,0-73.5-10.9-84.5-83.5c-4.6-30,0.2-53.4,14.3-69.7c19-22.2,50.6-25.5,67.7-25.5
		c8.7,0,14.5,0.8,14.7,0.9l2.8,0.4l2.2,40l-4.4-0.8c0,0-4.5-0.8-10.8-0.8c-10.7,0-25.4,2.2-34.9,12.6c-7.7,8.4-10.8,21-9.3,37.5
		c3.7,39.6,28,47.9,47.7,47.9c8.2,0,14.3-1.5,14.3-1.5l3.6-0.9l0.7,3.6l7.2,35.2l-3,1C178.2,230.1,166.4,233.8,150.3,233.8z"/>
	<path class="st1" d="M147.7,58.6c8.6,0,14.2,0.8,14.2,0.8l1.8,32.7c0,0-4.7-0.9-11.5-0.9c-18.4,0-52.1,6.4-47.7,54
		c4.1,43.9,32.9,51.1,51.2,51.1c8.8,0,15.2-1.7,15.2-1.7l6.6,32.1c0,0-11.6,3.7-27.3,3.7c-28.6,0-70.6-12.1-81-80.6
		C56.8,67.9,118.8,58.6,147.7,58.6 M147.7,51.6v7V51.6c-17.7,0-50.4,3.5-70.3,26.7c-14.7,17.1-19.8,41.5-15.1,72.6
		c11.4,75.3,60,86.5,88,86.5c16.6,0,28.9-3.8,29.5-4l6-1.9l-1.3-6.2l-6.6-32.1l-1.5-7.2l-7.1,1.9c0,0-5.7,1.4-13.4,1.4
		c-26.6,0-41.5-15-44.3-44.7c-1.4-15.5,1.4-27.2,8.4-34.8c8.7-9.5,22.4-11.5,32.4-11.5c6,0,10.2,0.7,10.2,0.7l8.7,1.6l-0.5-8.8
		L169,59l-0.3-5.7l-5.7-0.8C162.7,52.4,156.7,51.6,147.7,51.6L147.7,51.6z"/>
</g>
<g>
	<path class="st0" d="M746.4,231.1c-17.5,0-49.8-3.4-69.1-26.3c-14.1-16.8-18.6-40.8-13.3-71.5c5.3-30.9,17.3-53.6,35.5-67.4
		c13.4-10.2,29.9-15.4,48.9-15.4c17.1,0,29.7,4.3,30.3,4.4l3,1l-8.8,39l-3.6-1c-0.1,0-6.7-1.8-15.5-1.8c-19.2,0-43.1,8.2-47.6,47.5
		c-1.9,16.9,1,29.9,8.8,38.5c9.6,10.8,24.8,13.1,35.8,13.1c5.5,0,9.4-0.6,9.4-0.6l4.4-0.7l-3.1,40.3l-2.8,0.4
		C758.3,230.5,753.7,231.1,746.4,231.1C746.4,231.1,746.4,231.1,746.4,231.1z"/>
	<path class="st1" d="M748.3,54c16.7,0,29.1,4.3,29.1,4.3l-7.3,32.3c0,0-7-2-16.5-2c-18.4,0-46.1,7.4-51,50.6
		c-5.6,49.4,30,55.5,48,55.5c5.9,0,10-0.7,10-0.7l-2.6,33c0,0-4.6,0.6-11.7,0.6c-27.7,0-93.7-8.7-79-93.7
		C679,66.4,719.8,54,748.3,54 M748.3,47c-19.8,0-37,5.4-51,16.1c-18.9,14.4-31.3,37.8-36.8,69.6c-5.5,31.7-0.7,56.7,14.1,74.3
		c20.2,24,53.7,27.6,71.8,27.6c7.5,0,12.4-0.6,12.6-0.6l5.7-0.7l0.4-5.7l2.6-33l0.7-8.9l-8.8,1.5c0,0-3.6,0.6-8.8,0.6
		c-8.4,0-23.9-1.5-33.2-11.9c-7-7.9-9.7-19.9-7.9-35.8c3.4-29.5,18.2-44.4,44.1-44.4c8.3,0,14.5,1.7,14.6,1.7l7.1,2l1.6-7.2
		l7.3-32.3l1.4-6.1l-5.9-2C779.2,51.4,765.9,47,748.3,47L748.3,47z"/>
</g>
<g>
	<path class="st0" d="M382.5,241.6l-28-87.4l4.3,84.1l-36.3,1.6l-1.2-180.8l26.5-1.7l1.1,3.2c10.1,28.1,24.1,66.4,33.2,90.3
		c-2.2-24.7-6.7-63.5-10.1-90.6l-0.6-5.1h38.9l3.7,191L382.5,241.6z"/>
	<path class="st1" d="M405.9,59.8l3.5,181.3l-23.5-3.5l-37.7-117.7l5.9,114.2l-27.1,1.2l-1.2-171.9l18.8-1.2
		c0,0,37.7,104.8,42.4,113c0.2,0.3,0.3,0.4,0.4,0.4c3.3,0-11-115.8-11-115.8H405.9 M414.8,50.8h-8.8h-29.4h-10.2l1.3,10.1
		c2.1,16.8,4.5,37,6.5,55.6c-7.2-19.5-14.9-40.7-20.9-57.4l-2.3-6.4l-6.7,0.4l-18.8,1.2l-8.5,0.5l0.1,8.5l1.2,171.9l0.1,9.3l9.3-0.4
		l27.1-1.2l9.1-0.4l-0.5-9.1l-2.3-45l16.5,51.7l1.7,5.3l5.5,0.8l23.5,3.5l10.5,1.6l-0.2-10.7l-3.5-181.3L414.8,50.8L414.8,50.8z"/>
</g>
<g>
	<polygon class="st0" points="449.9,249.1 441.6,98.7 421,93.6 418.7,59.1 512.8,57.5 512.8,104.4 476.3,103.3 475.1,249.1 	"/>
	<path class="st1" d="M508.3,62.1v37.7l-36.5-1.2l-1.2,146h-16.5L446,95.1L425.3,90l-1.8-26.5L508.3,62.1 M517.3,53l-9.2,0.2
		l-84.9,1.4l-9.5,0.2l0.6,9.4l1.8,26.5l0.4,6.6l6.4,1.6l14.2,3.5l7.9,142.8l0.5,8.5h8.5h16.5h8.9l0.1-8.9l1.1-136.8l27.3,0.9
		l9.3,0.3v-9.3V62.1V53L517.3,53z"/>
</g>
<g>
	<polygon class="st0" points="858.3,257.5 856.6,100.1 803,101.4 803,51.5 936.9,53.2 933.6,90 903.3,95.5 891.1,257.5 	"/>
	<path class="st1" d="M807.5,56.1L932,57.6l-2.6,28.6L899,91.7L886.9,253h-24.2L861,95.5l-53.5,1.3V56.1 M798.5,47v9.1v40.6v9.2
		l9.2-0.2l44.4-1.1l1.6,148.4l0.1,8.9h8.9h24.2h8.4l0.6-8.3l11.6-154.4l23.5-4.2l6.8-1.2l0.6-6.8l2.6-28.6l0.9-9.7l-9.7-0.1
		l-124.5-1.5L798.5,47L798.5,47z"/>
</g>
<g>
	<path class="st2" d="M589.1,167.9l-13.3,2.2L554,232.2h-50.5l56.3-173.6h46.9l51.2,185.8l-47.3,1.8L589.1,167.9z M579.2,136.6
		l11.3-1.7l-5.2-25.3L579.2,136.6z"/>
	<path class="st1" d="M604,62.1l49.4,179l-40.1,1.5l-21.6-78.7l-18.5,3.1l-21.6,61.7h-43.2l54-166.6H604 M574.7,140.8l20.1-3.1
		L585.5,93L574.7,140.8 M609.3,55.1H604h-41.7h-5.1l-1.6,4.8l-54,166.6l-3,9.2h9.6h43.2h5l1.6-4.7l20.2-57.8l8.2-1.4l19.9,72.6
		l1.5,5.4l5.5-0.2l40.1-1.5l8.8-0.3l-2.3-8.5l-49.4-179L609.3,55.1L609.3,55.1z M583.8,132.3l1.4-6.3l1.2,5.8L583.8,132.3
		L583.8,132.3z"/>
</g>
</svg>
