<?xml version="1.0" encoding="utf-8"?>
<!-- Generator: Adobe Illustrator 25.2.0, SVG Export Plug-In . SVG Version: 6.00 Build 0)  -->
<svg version="1.1" id="Layer_1" xmlns="http://www.w3.org/2000/svg" xmlns:xlink="http://www.w3.org/1999/xlink" x="0px" y="0px"
	 viewBox="0 0 876.5 295" style="enable-background:new 0 0 876.5 295;" xml:space="preserve">
<style type="text/css">
	.st0{fill:#B30100;}
	.st1{fill:#FFFFFF;}
	.st2{fill:#B30000;}
	.st3{fill:#B30100;stroke:#FFFFFF;stroke-width:7;stroke-miterlimit:10;}
</style>
<g>
	<path class="st0" d="M242.3,234.7c-2.7,0-5.5-0.2-8.4-0.7c-37.3-6.3-47-50.5-44-86.4c3.6-42.5,25.5-87.7,59.1-87.7
		c3.7,0,7.6,0.6,11.4,1.7c16.7,4.9,29.4,18.2,36.7,38.5c6.4,17.7,8.2,39.5,5.1,61.2c-2.9,19.7-9.7,37.7-19.2,50.6
		C272.1,226.9,258,234.7,242.3,234.7C242.3,234.7,242.3,234.7,242.3,234.7z M250,101.4c-15.8,0-28.6,28.5-30.7,55.2
		c-1.5,19.5,2.5,41.3,18.3,43.8c1,0.2,2.1,0.2,3.1,0.2c16.7,0,27.7-21.8,31.1-43.4c3.7-23.3-1-49.8-17.3-55.1
		C253,101.7,251.5,101.4,250,101.4z"/>
	<path class="st1" d="M249,63.4c3.4,0,6.8,0.5,10.4,1.6c63.9,18.9,48.6,166.2-17.1,166.2c-2.5,0-5.1-0.2-7.8-0.7
		C166.2,219,189.9,63.4,249,63.4 M240.7,204.2c37.5,0,50.5-93.7,14.9-105.3c-1.9-0.6-3.8-0.9-5.6-0.9c-33.4,0-51.1,99.9-13,105.9
		C238.3,204.1,239.5,204.2,240.7,204.2 M249,56.4c-16.8,0-32.4,10.6-44,29.8c-9.9,16.3-16.7,38.6-18.5,61.1
		c-1.8,21.4,0.9,41.7,7.6,57.1c8.1,18.6,21.7,30,39.3,33c3,0.5,6,0.8,8.9,0.8c16.9,0,32-8.4,43.6-24.1c9.8-13.4,16.9-31.9,19.8-52.2
		c3.2-22.3,1.4-44.7-5.2-62.9c-7.7-21.4-21.2-35.4-39-40.7C257.3,57.1,253.1,56.4,249,56.4L249,56.4z M240.7,197.2
		c-0.8,0-1.7-0.1-2.6-0.2c-13.5-2.1-16.7-22.9-15.3-40c1-13.4,4.8-26.9,10.2-37c5.1-9.5,11.3-15,17-15c1.1,0,2.2,0.2,3.4,0.6
		c7.8,2.6,11.7,10.9,13.7,17.5c2.8,9.5,3.2,21.5,1.3,33.7C265.2,176.2,255.3,197.2,240.7,197.2L240.7,197.2z"/>
</g>
<g>
	<polygon class="st0" points="67.1,225.5 68.6,201.1 75.6,201.5 75.6,202.1 74.1,225.9 	"/>
	<path class="st1" d="M72.1,201.3l0,0.6l-1.5,23.8L72.1,201.3 M65.1,200.9l-1.5,24.4l14,0.9l1.5-23.8l0,0l0,0l0-0.6L65.1,200.9
		L65.1,200.9z"/>
</g>
<g>
	<path class="st0" d="M382.5,241.6l-28-87.4l4.3,84.1l-36.3,1.6l-1.2-180.8l26.5-1.7l1.1,3.2c10.1,28.1,24.1,66.4,33.2,90.3
		c-2.2-24.7-6.7-63.5-10.1-90.6l-0.6-5.1h38.9l3.7,191L382.5,241.6z"/>
	<path class="st1" d="M405.9,59.8l3.5,181.3l-23.5-3.5l-37.7-117.7l5.9,114.2l-27.1,1.2l-1.2-171.9l18.8-1.2
		c0,0,37.7,104.8,42.4,113c0.2,0.3,0.3,0.4,0.4,0.4c3.3,0-11-115.8-11-115.8H405.9 M414.8,50.8h-8.8h-29.4h-10.2l1.3,10.1
		c2.1,16.8,4.5,37,6.5,55.6c-7.2-19.5-14.9-40.7-20.9-57.4l-2.3-6.4l-6.7,0.4l-18.8,1.2l-8.5,0.5l0.1,8.5l1.2,171.9l0.1,9.3l9.3-0.4
		l27.1-1.2l9.1-0.4l-0.5-9.1l-2.3-45l16.5,51.7l1.7,5.3l5.5,0.8l23.5,3.5l10.5,1.6l-0.2-10.7l-3.5-181.3L414.8,50.8L414.8,50.8z"/>
</g>
<g>
	<polygon class="st0" points="631,253.4 629.2,96 575.6,97.2 575.6,47.4 709.6,49.1 706.2,85.9 675.9,91.3 663.8,253.4 	"/>
	<path class="st1" d="M580.1,52l124.5,1.5L702,82.1l-30.4,5.5l-12.1,161.3h-24.2l-1.7-157.5l-53.5,1.3V52 M571.1,42.9V52v40.6v9.2
		l9.2-0.2l44.4-1.1l1.6,148.4l0.1,8.9h8.9h24.2h8.4l0.6-8.3l11.6-154.4l23.5-4.2l6.8-1.2l0.6-6.8l2.6-28.6l0.9-9.7l-9.7-0.1
		L580.2,43L571.1,42.9L571.1,42.9z"/>
</g>
<g>
	<path class="st2" d="M515.9,167.9l-13.3,2.2l-21.7,62.1h-50.5l56.3-173.6h46.9l51.2,185.8l-47.3,1.8L515.9,167.9z M506,136.6
		l11.3-1.7l-5.2-25.3L506,136.6z"/>
	<path class="st1" d="M530.8,62.1l49.4,179l-40.1,1.5l-21.6-78.7l-18.5,3.1l-21.6,61.7h-43.2l54-166.6H530.8 M501.5,140.8l20.1-3.1
		L512.3,93L501.5,140.8 M536.1,55.1h-5.3h-41.7H484l-1.6,4.8l-54,166.6l-3,9.2h9.6h43.2h5l1.6-4.7l20.2-57.8l8.2-1.4l19.9,72.6
		l1.5,5.4l5.5-0.2l40.1-1.5l8.8-0.3l-2.3-8.5l-49.4-179L536.1,55.1L536.1,55.1z M510.6,132.3l1.4-6.3l1.2,5.8L510.6,132.3
		L510.6,132.3z"/>
</g>
<g>
	<polygon class="st0" points="730.4,251.3 723.8,49.9 800.1,46.3 800.1,86.4 758.1,87.4 757.6,128.3 800.2,127.2 798.6,171.2 
		758.4,170 760.5,206.8 806,203.7 812.2,252.4 	"/>
	<path class="st1" d="M796.6,50v33L754.7,84l-0.7,47.9l42.5-1.1l-1.3,36.8l-40.5-1.2l2.5,44.2l45.7-3.2l5.3,41.5l-74.4-1.1
		l-6.4-194.6L796.6,50 M803.6,42.7l-7.3,0.3l-69.1,3.2l-6.9,0.3l0.2,6.9l6.4,194.6l0.2,6.7l6.7,0.1l74.4,1.1l8.1,0.1l-1-8l-5.3-41.5
		l-0.8-6.6l-6.6,0.5l-38.7,2.7l-1.7-29.5l32.9,1l7,0.2l0.3-7l1.3-36.8l0.3-7.4l-7.4,0.2l-35.3,0.9l0.5-33.8l35.1-0.9l6.8-0.2V83V50
		V42.7L803.6,42.7z"/>
</g>
<path class="st3" d="M180.8,139.6C175.9,5.4,44.7,28.1,44.7,28.1l3.8,40.8l-6.9,132.2l0,0.8l-2,29.8l-0.5,6.7
	C38.9,238.4,185.7,273.9,180.8,139.6z M131.5,140.1c-1.1,40.4-23,54.9-44.9,59.2L91,73.9C112,81.5,132.6,99.4,131.5,140.1z"/>
</svg>
