<?xml version="1.0" encoding="utf-8"?>
<!-- Generator: Adobe Illustrator 25.2.0, SVG Export Plug-In . SVG Version: 6.00 Build 0)  -->
<svg version="1.1" id="Layer_1" xmlns="http://www.w3.org/2000/svg" xmlns:xlink="http://www.w3.org/1999/xlink" x="0px" y="0px"
	 viewBox="0 0 1366 295" style="enable-background:new 0 0 1366 295;" xml:space="preserve">
<style type="text/css">
	.st0{fill:#B30100;}
	.st1{fill:#FFFFFF;}
</style>
<g>
	<path class="st0" d="M173.9,199.7c-1.1,0-2.2,0-3.3-0.1c-15.3-1.4-26.1-8.5-31.2-20.7c-4.5-10.7,1.2-86.7,2.3-101.8l0.3-3.3
		l25.8,0.7l-0.5,3.8c0,0.2-2.4,20.1-4,40.8c-3,38.8-0.4,44.7,0.1,45.5c2.2,2.5,4.7,3.7,7.6,3.7c1.8,0,3-0.5,3.1-0.5l0.9-0.4l1,0.1
		c0,0,0.2,0,0.4,0c2.2,0,7.5-0.8,10.1-7.7c2.9-7.7,3.7-53.3,3.6-82l0-3l28.1-4.4l-0.2,4.3c-0.4,9.6-4.1,94.5-8.3,104.9
		C205.1,190.6,189.1,199.7,173.9,199.7z"/>
	<path class="st1" d="M214.5,74.5c0,0-3.9,93.6-8.1,103.8c-3.9,9.5-18.6,17.9-32.5,17.9c-1,0-2,0-2.9-0.1
		c-14.7-1.3-23.9-8.1-28.3-18.5c-4.4-10.4,2.6-100.2,2.6-100.2l18.6,0.5c0,0-9.9,81.3-3.1,88.9c3.5,4,7.4,4.9,10.2,4.9
		c2.6,0,4.5-0.8,4.5-0.8s0.3,0,0.9,0c2.5,0,10-0.8,13.4-10c4.2-11.1,3.8-83.2,3.8-83.2L214.5,74.5 M221.8,66.2l-8.4,1.3l-20.9,3.2
		l-6,0.9l0,6c0.2,34.8-1.1,74.5-3.4,80.7c-1.7,4.5-4.6,5.4-6.8,5.4c0,0-0.1,0-0.1,0l-2.2-0.4l-1.3,0.9c-0.2,0.1-0.9,0.2-1.6,0.2
		c-1.7,0-3.2-0.7-4.6-2.2c-0.6-1.8-2.2-10.2,0.5-44.8c1.6-20,3.9-38.8,3.9-39l0.9-7.6l-7.7-0.2l-18.6-0.5l-6.6-0.2l-0.5,6.6
		c0,0.2-1.8,22.8-3,46.4c-2.5,49.1-0.2,54.5,0.9,57.1c3.9,9.4,13.1,20.9,34.1,22.8c1.2,0.1,2.4,0.2,3.6,0.2c16.5,0,34-10,39-22.3
		c0.9-2.2,3-7.4,6.1-57.9c1.5-24.4,2.5-48,2.5-48.2L221.8,66.2L221.8,66.2z"/>
</g>
<g>
	<path class="st0" d="M292.5,202.7l-0.7-2.5c0-0.1-3.6-13.5-8.4-26.7c-9-24.9-13.7-25.8-13.8-25.8c-3.6,0.2-6,0.4-7.7,0.5l-1.4,53.8
		l-30.5-0.8l9.2-129.5l3.3,0c0.2,0,22,0.3,39.3,1c17.7,0.8,36.4,14.9,35.8,36.5c-0.4,17-15.3,26.6-22.3,30.2l33.6,64.3L292.5,202.7z
		 M263.6,115.5c1.4,0.1,3.2,0.2,5.2,0.2c7.9,0,17.4-1.5,17.5-8.6c0.1-2-0.5-3.5-1.8-4.8c-2.9-3-9.7-4.7-18.5-4.7c-0.7,0-1.4,0-2,0
		L263.6,115.5z"/>
	<path class="st1" d="M242.5,75.1c0,0,21.8,0.3,39.2,1c15.8,0.7,33,13.3,32.5,32.9c-0.5,19.7-23.6,28.7-23.6,28.7l32.6,62.2l-28-0.7
		c0,0-14.7-55.1-25.6-55.1c-0.1,0-0.1,0-0.2,0c-10.9,0.7-10.9,0.7-10.9,0.7l-1.4,53.5l-23.3-0.6L242.5,75.1 M268.8,119.2
		c8.7,0,20.8-1.8,21-12c0.3-11.6-15.3-13.2-23.8-13.2c-3.2,0-5.4,0.2-5.4,0.2l-0.6,24.3C260,118.6,263.9,119.2,268.8,119.2
		 M236,68.1l-0.5,6.6l-8.7,122.5l-0.5,7.3l7.3,0.2l23.3,0.6l7,0.2l0.2-7l1.2-47.1c0.9-0.1,2-0.1,3.3-0.2c1.3,1.3,5.5,6.6,12.3,25.7
		c4.4,12.4,7.5,24.1,7.5,24.2l1.3,5.1l5.2,0.1l28,0.7l11.9,0.3l-5.5-10.6l-29.3-56c8.2-4.9,20.7-15,21.1-31.5
		c0.6-23.7-19.9-39.3-39.2-40.1c-17.4-0.8-39.2-1-39.4-1L236,68.1L236,68.1z M267.2,112.2l0.3-11.1c8.3,0.2,12.9,2,14.6,3.7
		c0.5,0.5,0.8,1.1,0.8,2.3c0,1-0.1,2.3-3.1,3.5c-2.6,1.1-6.4,1.6-11,1.6C268.3,112.2,267.7,112.2,267.2,112.2L267.2,112.2z"/>
</g>
<g>
	<path class="st0" d="M81.6,191.2c-0.9,0-1.8,0-2.8-0.1c-30-2-42.3-36.6-41.2-70C38.7,87.8,53.6,54.2,80,54.2c2,0,4.1,0.2,6.1,0.6
		c30.4,5.8,43.4,45.5,40.1,80C123,169,105.5,191.2,81.6,191.2C81.6,191.2,81.6,191.2,81.6,191.2z M82.1,87.7
		c-11.4,0-19.1,20.8-19.6,40.1C62,145,67,162.7,79.2,163.4c0.3,0,0.6,0,0.9,0c13,0,19.4-16.9,21-31.5c2.1-19.4-3.5-41.1-16.6-44
		C83.6,87.8,82.8,87.7,82.1,87.7z"/>
	<path class="st1" d="M80,57.7c1.8,0,3.6,0.2,5.5,0.5c51.8,9.8,50.2,129.5-3.9,129.5c-0.8,0-1.7,0-2.5-0.1
		C24.5,183.9,32,57.7,80,57.7 M80,166.9c30.5,0,34-76,5.1-82.4c-1-0.2-2.1-0.3-3.1-0.3c-26.8,0-33.5,81-3.1,82.7
		C79.3,166.9,79.7,166.9,80,166.9 M80,50.7C66.3,50.7,54.2,59,45.8,74c-7,12.6-11.2,29.2-11.8,46.9c-0.6,18,2.6,35.1,9.1,47.9
		c7.9,15.8,20.2,24.7,35.4,25.7c1,0.1,2,0.1,3,0.1c25.9,0,44.8-23.4,48.2-59.7c1.7-18.2-1-37.2-7.5-52
		c-7.7-17.5-20.3-28.8-35.5-31.7C84.5,50.9,82.2,50.7,80,50.7L80,50.7z M80,159.9c-0.2,0-0.4,0-0.7,0c-9.8-0.6-13.8-17-13.4-32
		c0.5-19.5,8.1-36.7,16.1-36.7c0.5,0,1,0.1,1.6,0.2c11,2.4,15.8,22.7,13.9,40.2C96,145.7,90,159.9,80,159.9L80,159.9z"/>
</g>
<g>
	<path class="st0" d="M507.5,210.9c-25.5,0-85.2-7.1-87.1-73.2c-0.6-19.2,4.6-34.6,15.4-45.7c16.3-16.8,42.3-20.3,61.2-20.3
		c17.3,0,30.7,2.8,31.2,2.9l3,0.7l-3.1,32.1l-3.9-1c-0.1,0-9-2.2-19.9-2.2c-26.3,0-40.2,11.3-41.2,33.5c-0.5,11.2,2.4,20.3,8.7,26.9
		c11.8,12.3,32.8,13.7,41.4,13.7c3.4,0,5.6-0.2,5.6-0.2l3.5-0.3l3,31.8l-3.3,0.5C521.8,210.2,516.1,210.9,507.5,210.9z"/>
	<path class="st1" d="M497,75.2c17.1,0,30.5,2.9,30.5,2.9l-2.4,25c0,0-9.2-2.3-20.8-2.3c-18.6,0-43.3,5.9-44.7,36.8
		c-1.9,40.4,38.1,44.3,53.6,44.3c3.7,0,6-0.2,6-0.2l2.4,25c0,0-5.6,0.8-14,0.8c-26.6,0-81.8-7.5-83.6-69.8
		C422.4,84.6,465.9,75.2,497,75.2 M497,68.2v7V68.2c-28.1,0-50.2,7.4-63.7,21.3c-11.4,11.8-17,28-16.4,48.2
		c0.5,15.8,4.2,29.4,11.1,40.7c6,9.7,14.4,17.6,25,23.5c18.4,10.3,39.8,12.4,54.5,12.4c8.8,0,14.7-0.8,15-0.8l6.7-0.9l-0.6-6.7
		l-2.4-25l-0.7-7l-7,0.7c0,0-2.1,0.2-5.3,0.2c-8.1,0-28-1.2-38.8-12.6c-5.7-6-8.2-13.9-7.7-24.3c0.5-11.5,4.7-19.5,12.6-24.3
		c6.1-3.8,14.8-5.8,25.1-5.8c10.5,0,19,2,19.1,2.1l7.9,1.9l0.8-8l2.4-25l0.6-6.2l-6.1-1.3C528.4,71.1,514.7,68.2,497,68.2L497,68.2z
		"/>
</g>
<g>
	<path class="st0" d="M591.6,155.9l-9.1,1.5l-16.8,48h-40.6L569,69.8h37.4l40,144.9l-38.1,1.5L591.6,155.9z M585.6,129.8l6.8-1
		l-3.1-15.1L585.6,129.8z"/>
	<path class="st1" d="M603.7,73.3l38.1,138.1l-30.9,1.2l-16.7-60.7l-14.3,2.4l-16.7,47.6h-33.3l41.7-128.6H603.7 M581.1,134
		l15.5-2.4l-7.1-34.5L581.1,134 M609,66.3h-5.3h-32.1h-5.1l-1.6,4.8l-41.7,128.6l-3,9.2h9.6h33.3h5l1.6-4.7l15.3-43.7l4-0.7l15,54.6
		l1.5,5.4l5.5-0.2l30.9-1.2l8.8-0.3l-2.3-8.5L610.5,71.5L609,66.3L609,66.3z"/>
</g>
<g>
	<polygon class="st0" points="714.1,151.4 711.3,163.4 687.3,166.4 680.4,151.3 682.3,210.2 649.1,210.2 644.1,64.1 671.2,62.6 
		695.7,108.5 701.8,61.4 747.7,62.8 746.5,214.7 715.8,216.3 	"/>
	<path class="st1" d="M704.9,65l39.3,1.2L743,211.4l-23.8,1.2l-2.4-89.3l-8.3,36.9l-19,2.4L676.3,134l2.4,72.6h-26.2l-4.8-139.3
		l21.4-1.2l28.6,53.6L704.9,65 M698.8,57.8l-0.8,6.3l-4.3,33.1l-18.3-34.3l-2.1-3.9l-4.5,0.2l-21.4,1.2l-6.8,0.4l0.2,6.8l4.8,139.3
		l0.2,6.8h6.8h26.2h7.2l-0.2-7.2l-1.2-37.8l0.7,1.6l5.1-0.6l19-2.4l1.6-0.2l1.2,45.8l0.2,7.2l7.2-0.4l23.8-1.2l6.6-0.3l0.1-6.6
		l1.2-145.2l0.1-6.8l-6.8-0.2L705.1,58L698.8,57.8L698.8,57.8z"/>
</g>
<g>
	<path class="st0" d="M756.1,214.7l5-150.1l36-9l0.1,0c0.2,0,3.9-0.7,9.2-0.7c9,0,21.5,2,30.4,11.5c7.6,8.1,10.9,20.2,9.9,35.8
		c-2.8,41.4-36.3,45.8-50.6,45.8c0,0,0,0,0,0c-3.1,0-5.8-0.2-7.8-0.4l-1.2,68.7L756.1,214.7z M788.3,114.1c9.4-2.4,25.1-7.5,29.2-14
		c1-1.5,0.9-2.7,0.7-3.4c-2.2-8.7-21.4-9.4-27.2-9.4c-0.6,0-1.2,0-1.7,0L788.3,114.1z"/>
	<path class="st1" d="M806.3,58.4c13.8,0,39.4,5.1,36.7,43.5c-2.5,37.2-30.9,42.6-47.1,42.6c-6.6,0-11.2-0.9-11.2-0.9l-1.2,69
		l-23.8-1.2l4.8-144l33.3-8.3C797.8,59,801.2,58.4,806.3,58.4 M784.7,118.6c0,0,40.5-8.3,36.9-22.6c-2.7-10.7-21.4-12-30.6-12
		c-3.1,0-5.1,0.2-5.1,0.2L784.7,118.6 M806.3,51.4c-5.5,0-9.4,0.7-9.8,0.8l-0.2,0l-0.2,0l-33.3,8.3l-5.1,1.3l-0.2,5.3l-4.8,144
		l-0.2,6.9l6.9,0.3l23.8,1.2l7.2,0.4l0.1-7.2l1.1-61.4c1.3,0.1,2.8,0.1,4.4,0.1c8.7,0,21.5-1.5,32.4-8.4c13.1-8.3,20.4-22,21.6-40.7
		c1.1-16.6-2.5-29.5-10.8-38.4C829.5,53.5,815.9,51.4,806.3,51.4L806.3,51.4z M792,109.5l0.6-18.6c14.1,0.2,21.4,3.6,22.2,6.7
		c0,0.1,0,0.2-0.2,0.6C812,102.4,801.5,106.7,792,109.5L792,109.5z"/>
</g>
<g>
	<path class="st0" d="M861.5,69.3l37.3-1.9l47.3,142.7l-38,3.4l-17.3-53.7l-17.5,5.5l-12,45.5l-39.8,7.4L861.5,69.3z M881.2,128.3
		l6.7-1.4l-3.9-14.9L881.2,128.3z"/>
	<path class="st1" d="M896.4,71l45,136l-30.8,2.8L893,155.5l-22.6,7.1l-11.9,45.2l-32.1,6l37.9-141.1L896.4,71 M876.8,132.8
		l15.3-3.2l-8.9-34.1L876.8,132.8 M901.3,63.8L896,64l-32.1,1.6l-5.1,0.3l-1.3,4.9L819.6,212l-2.9,10.7l10.9-2l32.1-6l4.4-0.8
		l1.1-4.3l10.9-41.5l12.3-3.9l15.4,47.7l1.7,5.3l5.6-0.5L942,214l8.8-0.8l-2.8-8.4l-45-136L901.3,63.8L901.3,63.8z"/>
</g>
<g>
	<path class="st0" d="M947.9,209.8l-0.1-3.1c-0.1-5.2-2.4-126.3-2.4-129.8v-3.5h34.1l11.3,140.7L947.9,209.8z"/>
	<path class="st1" d="M976.3,76.9L987,210.2l-35.7-3.6c0,0-2.4-126.2-2.4-129.8H976.3 M982.8,69.9h-6.5H949h-7v7
		c0,3.6,2.3,124.7,2.4,129.9l0.1,6.2l6.2,0.6l35.7,3.6l8.3,0.8l-0.7-8.4L983.3,76.3L982.8,69.9L982.8,69.9z"/>
</g>
<g>
	<path class="st0" d="M1029.2,219.3c-8.5,0-16.3-3.7-23.1-11.1c-14.7-15.9-21.8-46.1-20.2-66.1c1.2-15.5,3.1-31.7,8.3-44.8
		c6.2-15.7,16.5-24.5,30.5-26.3c1.7-0.2,3.4-0.3,5-0.3c27.6,0,44.2,28.2,44.9,29.4l1.6,2.7l-2.5,1.9c-6.7,4.9-15.5,10.8-19.2,10.8
		c0,0,0,0,0,0c-2.2,0-4-1.5-4.2-3.7c-1-2-8.1-9.4-16.5-9.4c-4.8,0-9.1,2.5-12.9,7.5c-5.8,7.6-6.9,21.5-3,38.3
		c3.8,16.6,11.4,30.3,16.1,32.7c1.1,0.6,2.2,0.8,3.3,0.8c3.7,0,7.1-3.4,9.5-6.6l-12.8-1l-3-30.2l44.9-4.2l4.1,28.7l0,0.4
		c-0.1,1.4-3,34.5-39.2,48.3C1036.8,218.5,1032.9,219.3,1029.2,219.3z"/>
	<path class="st1" d="M1029.7,74.2c25.9,0,41.8,27.7,41.8,27.7s-13.8,10.1-17.1,10.1c-0.5,0-0.7-0.2-0.7-0.6c0-2.4-9.2-12.4-20-12.4
		c-5.2,0-10.7,2.3-15.7,8.9c-15.5,20.2,2.4,70.2,14.3,76.2c1.7,0.9,3.3,1.2,4.9,1.2c9.2,0,15.4-13.1,15.4-13.1l-15.5-1.2l-2.4-23.8
		l38.1-3.6l3.6,25c0,0-2.4,32.1-36.9,45.2c-3.6,1.4-7,2-10.2,2c-27.8,0-41.9-46.7-39.8-73.4c2.4-29.8,7.1-64.3,35.7-67.9
		C1026.7,74.3,1028.2,74.2,1029.7,74.2 M1029.7,67.2C1029.7,67.2,1029.7,67.2,1029.7,67.2c-1.8,0-3.6,0.1-5.4,0.3
		c-15.4,1.9-26.6,11.5-33.3,28.5c-5.3,13.5-7.2,30-8.5,45.8c-0.8,10.5,0.6,23.5,4,35.6c2.7,9.6,7.8,23.2,17.1,33.1
		c7.4,8,16.3,12.3,25.7,12.3c4.2,0,8.4-0.8,12.7-2.4c38.3-14.5,41.3-49.8,41.4-51.3l0.1-0.8l-0.1-0.8l-3.6-25l-0.9-6.6l-6.6,0.6
		l-38.1,3.6l-7,0.7l0.7,7l2.3,23.1c-3.1-5.3-6.6-13.5-8.9-23.5c-3.6-15.5-2.7-28.7,2.4-35.4c3.1-4.1,6.5-6.1,10.1-6.1
		c6,0,11.7,5.1,13.2,7.2c0.8,3.4,3.8,5.9,7.5,5.9c1.7,0,5.6,0,21.3-11.5l5.1-3.7l-3.1-5.4C1076.9,97.1,1059.3,67.2,1029.7,67.2
		L1029.7,67.2L1029.7,67.2z M1037.2,178.2c-0.5,0-1-0.1-1.6-0.4l0.9,0.1l1.7,0.1C1037.9,178.2,1037.5,178.2,1037.2,178.2
		L1037.2,178.2z"/>
</g>
<g>
	<polygon class="st0" points="1118.3,161.3 1119.2,212.7 1083.5,211.2 1084.8,68.6 1121.6,68.6 1144.5,127.3 1141.7,66.5 
		1181.3,63.6 1170.1,209.9 1133.3,212.7 	"/>
	<path class="st1" d="M1177.5,67.4l-10.7,139.3l-31,2.4l-21.4-73.8l1.2,73.8l-28.6-1.2l1.2-135.7h31l29.8,76.2l-3.6-78.6
		L1177.5,67.4 M1185.1,59.8l-8.1,0.6l-32.1,2.4l-6.8,0.5l0.3,6.8l1.6,36.2l-14.3-36.7l-1.7-4.5h-4.8h-31h-6.9l-0.1,6.9l-1.2,135.7
		l-0.1,6.8l6.8,0.3l28.6,1.2l7.4,0.3l-0.1-7.4l-0.3-21.6l6.9,23.6l1.6,5.5l5.7-0.4l31-2.4l6-0.5l0.5-6l10.7-139.3L1185.1,59.8
		L1185.1,59.8z"/>
</g>
<g>
	<path class="st0" d="M1209.1,204.5c-10.2,0-17.6-0.6-17.9-0.6l-3.1-0.3l-0.8-29.6l3.8,0.3c0,0,4.1,0.3,9.8,0.3
		c17.5,0,29.8-2.6,33.7-7c1-1.2,1.4-2.4,1.2-3.9c-0.7-5.2-7.8-9.7-16.1-14.8c-15.1-9.3-35.9-22.2-35.8-52.2
		c0-21.9,19.1-33.9,53.6-33.9c8.2,0,14,0.7,14.3,0.8l3,0.4l0.4,31.8l-4.6-1.4c-0.1,0-9.6-2.9-18.6-2.9c-14.4,0-14.4,7-14.4,9.6
		c0,6.3,7.6,11.4,16.5,17.4c5.4,3.6,11.4,7.7,16.8,12.7c13,12.1,19,35.8,19,48C1270,200.1,1236.9,204.5,1209.1,204.5z"/>
	<path class="st1" d="M1237.6,66.2c8.1,0,13.8,0.7,13.8,0.7l0.3,24c0,0-10-3-19.6-3c-9.1,0-17.9,2.7-17.9,13.1
		c0,12.6,19.8,19,34.4,32.7c11.6,10.9,17.9,33.1,17.9,45.4c0,19-35.2,21.9-57.4,21.9c-10.2,0-17.6-0.6-17.6-0.6l-0.6-22.6
		c0,0,4.2,0.3,10.1,0.3c14.7,0,40-1.9,38.4-14.9c-2.3-18.2-51.9-21.3-51.9-66.6C1187.5,70.1,1218.8,66.2,1237.6,66.2 M1237.6,59.2
		c-9.6,0-23.4,1-34.8,5.8c-14.6,6.2-22.3,17.1-22.3,31.6c0,14.3,4.3,26.1,13.2,36.3c7.4,8.4,16.4,14,24.3,18.9
		c6.9,4.2,14,8.6,14.4,12.2c0.1,0.5,0,0.7-0.4,1.1c-2.4,2.7-12,5.9-31.1,5.9c-5.5,0-9.5-0.3-9.6-0.3l-7.7-0.6l0.2,7.7l0.6,22.6
		l0.2,6.3l6.2,0.5c0.3,0,7.9,0.7,18.2,0.7c15.6,0,28.7-1.4,38.8-4.1c21.1-5.7,25.5-16.6,25.5-24.8c0-12.8-6.4-37.7-20.1-50.5
		c-5.6-5.2-11.8-9.4-17.3-13.1c-7.7-5.2-14.9-10.1-14.9-14.5c0-2.1,0-6.1,10.9-6.1c8.5,0,17.5,2.7,17.6,2.7l9.1,2.8l-0.1-9.5
		l-0.3-24l-0.1-6.1l-6-0.8C1252.1,59.9,1246,59.2,1237.6,59.2L1237.6,59.2z"/>
</g>
</svg>
