<?xml version="1.0" encoding="utf-8"?>
<!-- Generator: Adobe Illustrator 25.2.0, SVG Export Plug-In . SVG Version: 6.00 Build 0)  -->
<svg version="1.1" id="Layer_1" xmlns="http://www.w3.org/2000/svg" xmlns:xlink="http://www.w3.org/1999/xlink" x="0px" y="0px"
	 viewBox="0 0 1315.4 225" style="enable-background:new 0 0 1315.4 225;" xml:space="preserve">
<style type="text/css">
	.st0{fill:#B30100;}
	.st1{fill:#FFFFFF;}
</style>
<g>
	<g>
		<path class="st0" d="M97.6,182.9c-10.2,0-25.1-2.1-37.9-12c-16-12.4-24.7-33.4-25.8-62.4c-2.9-74.2,41.3-82,55-82.7
			c0.8,0,1.7-0.1,2.7-0.1c5.9,0,26.5,0.9,45.1,12.2c20.7,12.6,32,34.1,32.9,62.3c1.1,37.1-14.3,57-27.5,67.2
			c-17.7,13.7-37.1,15.3-40.8,15.4C100,182.8,98.8,182.9,97.6,182.9C97.6,182.9,97.6,182.9,97.6,182.9z M95.5,62.8
			c-0.4,0-0.9,0-1.3,0c-4.7,0.8-29.7,19.1-28.7,44.3c1.1,27.6,17.3,42.9,32.7,43.7c0.1,0,0.2,0,0.4,0c0.2,0,15.7-0.1,26.9-11.8
			c7.9-8.3,11.6-20.2,11-35.5C135.6,80.5,113.7,62.8,95.5,62.8z"/>
		<path class="st1" d="M91.5,30.2c17.9,0,71.6,7.3,73.5,70.1c2,66-49.3,77.3-64,78c-1,0-2.2,0.1-3.4,0.1c-17.3,0-56.7-6.1-59.2-70.1
			c-2.7-68.7,36-77.3,50.7-78C89.7,30.3,90.6,30.2,91.5,30.2 M98.7,155.3c7.7,0,44.3-5.5,42.4-52c-1.1-26.5-25.7-45-45.5-45
			c-0.5,0-1,0-1.5,0c-6,0.3-34.1,20.8-33,49c1.1,28.2,18,47,37,48C98.2,155.3,98.4,155.3,98.7,155.3 M91.5,21.2c-1,0-2,0-2.9,0.1
			c-8.3,0.4-24.2,3-37.7,16c-15.6,15.1-22.8,39.1-21.6,71.3c1.2,30.5,10.5,52.6,27.6,65.8c11,8.5,25,12.9,40.7,12.9
			c1.3,0,2.6,0,3.8-0.1c3.9-0.2,24.6-1.8,43.4-16.4c14-10.8,30.4-31.9,29.2-70.9c-1.1-37.6-19.7-56.6-35.1-66
			C119.9,22.5,99.5,21.2,91.5,21.2L91.5,21.2z M95.1,67.3c0.2,0,0.3,0,0.5,0c14.3,0,35.5,14.2,36.5,36.4c0.6,14-2.7,24.9-9.7,32.2
			c-8.2,8.6-19.9,10.4-23.7,10.4c-0.1,0-0.1,0-0.2,0c-6.9-0.4-13.5-4.1-18.7-10.4c-5.9-7.3-9.4-17.5-9.8-28.9
			c-0.4-11.6,5.4-21.3,10.5-27.3C86.7,72.1,93.1,68.1,95.1,67.3L95.1,67.3z"/>
	</g>
	<g>
		<path class="st0" d="M217.6,185.5c-0.4,0-0.9,0-1.3,0c-33.4-0.7-42.4-25.3-42.8-26.3l-0.2-0.7l-3.5-127.3h33.9l-0.1,4.6
			c-0.4,27.9-1.2,101.8-0.7,108.2c0.3,3.5,0.5,3.8,8.3,5.7c1.1,0.3,2.4,0.6,3.7,0.9c1.2,0.3,2.4,0.5,3.4,0.5c1.2,0,5,0,5.7-6.6
			c0.5-4.7,1-68.9,1.3-110.9l0-4.6l33.8,0.9l-3.5,127.5l0,0.3C255.4,158,250.6,185.5,217.6,185.5z"/>
		<path class="st1" d="M229.7,33.6l24.7,0.7L251,157c0,0-3.9,24-33.5,24c-0.4,0-0.8,0-1.2,0c-30.7-0.7-38.7-23.3-38.7-23.3l-3.3-122
			H199c0,0-1.3,100.7-0.7,108.7c0.7,8,5.3,8,15.3,10.7c1.7,0.4,3.2,0.6,4.5,0.6c6.7,0,9.6-5.1,10.2-10.6
			C229,138.3,229.7,33.6,229.7,33.6 M220.7,24.4l-0.1,9.2c-0.3,40.1-0.8,105.5-1.3,110.5c-0.1,1.4-0.5,2.2-0.7,2.5
			c-0.1,0-0.3,0-0.5,0c-0.4,0-1.1-0.1-2.2-0.3c-1.3-0.4-2.6-0.7-3.8-1c-1.7-0.4-3.8-0.9-4.9-1.4c0-0.1,0-0.3,0-0.4
			c-0.5-5.5,0.2-69,0.7-107.8l0.1-9.1H199h-24.7h-9.2l0.3,9.2l3.3,122l0,1.4l0.5,1.3c0.4,1.2,10.5,28.5,47,29.3c0.5,0,0.9,0,1.4,0
			c18.9,0,29.4-8.4,34.9-15.5c5.9-7.6,7.3-15.2,7.4-16.1l0.1-0.6l0-0.6l3.3-122.7l0.2-9l-9-0.2l-24.7-0.7L220.7,24.4L220.7,24.4z"/>
	</g>
	<g>
		<path class="st0" d="M328.8,184.8l-25-70H299l-8,65.2l-27.6-1.5l6.4-148.7l53-1.1c0.5-0.1,1.5-0.1,2.8-0.1c7.3,0,31.1,2.6,33,36.4
			c1.7,29.9-17.9,44.2-27.2,49.2l39.4,70.5H328.8z M304.4,73.7c2.8,0.6,7.1,1.4,10.7,1.4c2.3,0,3.3-0.3,3.7-0.5
			c4.6-16.3,1.7-18.8,0.6-19.2c-1.4-0.5-3.5-0.8-5.9-0.8c-3.6,0-7.3,0.6-9.9,1.1L304.4,73.7z"/>
		<path class="st1" d="M325.6,33.2c7.1,0,26.8,2.7,28.5,32.1c2,36-29,47-29,47l38,68h-31l-25-70h-12l-8,65l-19-1l6-140l49-1
			C323,33.3,324,33.2,325.6,33.2 M315.1,79.7c3.9,0,7.2-0.8,7.9-3.4c2-7,6-22-2-25c-2.2-0.8-4.8-1.1-7.5-1.1
			c-7.1,0-14.5,2.1-14.5,2.1l1,25C300,77.3,308.4,79.7,315.1,79.7 M325.6,24.2c-1.4,0-2.5,0.1-3.1,0.1l-48.6,1l-8.4,0.2l-0.4,8.4
			l-6,140l-0.4,8.9l8.9,0.5l19,1l8.4,0.4l1-8.3l6.4-52.3l21.2,59.2l2.1,6h6.3h31h15.3l-7.5-13.4L337.4,116c2.8-1.8,6-4.2,9.1-7.2
			c8.2-7.9,17.7-22,16.5-44C361.3,34.8,342.6,24.2,325.6,24.2L325.6,24.2z M308.3,59.6c1.7-0.2,3.5-0.4,5.2-0.4
			c1.5,0,2.5,0.1,3.2,0.3c0.2,1.4,0.2,4.5-1.5,11.3c0,0-0.1,0-0.1,0c-1.9,0-4.2-0.3-6.3-0.7L308.3,59.6L308.3,59.6z"/>
	</g>
	<g>
		<polygon class="st0" points="431.3,32 490.7,29.6 499.4,72.1 506.2,28.8 562.3,28.8 569.7,184.8 534.9,184.8 526.8,98 
			517.9,153.8 489.8,153.8 472,102.2 475.7,183.5 437.7,186.1 		"/>
		<path class="st1" d="M558,33.3l7,147h-26l-11-118l-14,87h-21l-27-78l5,108l-29,2l-6-145l51-2l13,63l10-64H558 M566.6,24.3H558h-48
			h-7.7l-1.2,7.6l-2.3,14.9l-3-14.4l-1.5-7.5l-7.6,0.3l-51,2l-9,0.4l0.4,9l6,145l0.4,9.2l9.2-0.6l29-2l8.8-0.6l-0.4-8.8l-2.1-45.8
			l6.6,19.1l2.1,6.1h6.4h21h7.7l1.2-7.6l2.7-17l4.4,47.4l0.8,8.2h8.2h26h9.4l-0.4-9.4l-7-147L566.6,24.3L566.6,24.3z"/>
	</g>
	<g>
		<path class="st0" d="M625.7,184.9c-49.4,0-56-48.8-56.8-63.7c-0.2-3.8-4.5-92.8,53.2-97.2c1.5-0.1,3-0.2,4.5-0.2
			c20.8,0,37.5,11.7,48.2,33.8c9.8,20.1,11.4,41.6,11.6,45.7c1.3,22.8-1.4,76.5-53.6,81.2C630.5,184.7,628,184.9,625.7,184.9
			C625.7,184.9,625.7,184.9,625.7,184.9z M629,61.5c-1,0-2.1,0.1-3.1,0.2c-16.4,1.6-28.8,30.2-27.5,52.5c0.3,5.5,14.4,34.4,31,34.4
			c0.4,0,0.9,0,1.3-0.1c19.6-1.8,29.9-21.9,30-40.8c0-5.2-2.2-27.2-13.8-38.8C641.9,63.9,636.1,61.5,629,61.5z"/>
		<path class="st1" d="M626.6,28.3c44.9,0,54.4,58.2,55.4,75.3c1,17.6,1,71.9-49.5,76.5c-2.4,0.2-4.6,0.3-6.8,0.3
			c-44.4,0-51.4-42.7-52.3-59.5c-1-17.6,0.5-88.7,49.1-92.5C623.9,28.3,625.3,28.3,626.6,28.3 M629.3,153c0.6,0,1.1,0,1.7-0.1
			c20.8-1.9,34-22.5,34.1-45.3c0-7-4.1-50.6-36.1-50.6c-1.2,0-2.3,0.1-3.6,0.2c-19.9,1.9-33,33.3-31.6,57.2
			C594.3,121.4,609.4,153,629.3,153 M626.6,19.3c-1.6,0-3.2,0.1-4.9,0.2c-24.4,1.9-42,18.2-51,47.4c-7.6,24.5-6.6,49.8-6.4,54.6
			c0.5,8.7,2.6,25.4,11.1,40c10.6,18.3,28,27.9,50.2,27.9c2.5,0,5-0.1,7.6-0.4c25-2.3,42.8-15.8,51.7-39.2c4.9-13,7-29.2,6-46.8
			c-0.2-4.3-1.9-26.6-12.1-47.5C667.4,31.8,649.3,19.3,626.6,19.3L626.6,19.3z M602.8,113.7c-1.2-22,10.8-46.4,23.5-47.6
			c0.9-0.1,1.8-0.1,2.7-0.1c0,0,0,0,0,0c5.8,0,10.6,2,14.6,6c10.4,10.4,12.5,31.1,12.5,35.6c-0.1,16.9-9,34.8-26,36.4
			c-0.3,0-0.6,0-0.9,0c-5.2,0-11.6-4.5-17.4-12.4C606.2,123.8,603.1,115.7,602.8,113.7L602.8,113.7z"/>
	</g>
	<g>
		<polygon class="st0" points="701.3,182.8 670.5,25.5 699.4,27 728.4,122.9 763.8,23.8 791.1,23.8 742.3,182.8 		"/>
		<path class="st1" d="M785,28.3l-46,150h-34l-29-148l20,1l32,106l39-109H785 M797.2,19.3H785h-18h-6.3l-2.1,6l-29.8,83.3
			l-24.1-79.9l-1.8-6.1l-6.3-0.3l-20-1L665,20.7l2.2,11.3l29,148l1.4,7.3h7.4h34h6.7l2-6.4l46-150L797.2,19.3L797.2,19.3z"/>
	</g>
	<g>
		<polygon class="st0" points="780.3,182.7 788.8,25.6 879.8,30 885.5,61 816.8,58 818.3,88 844.8,89 842.2,127.6 818.5,128.6 
			818.5,155 877.7,158 883.7,184.9 		"/>
		<path class="st1" d="M793,30.3l83,4l4,22l-68-3l2,39l26,1l-2,30l-24,1v35l60,3l4,18l-93-2L793,30.3 M784.5,20.9l-0.5,8.9l-8,148
			l-0.5,9.3l9.3,0.2l93,2l11.5,0.2l-2.5-11.2l-4-18l-1.5-6.7l-6.8-0.3l-51.4-2.6v-17.8l15.4-0.6l8.1-0.3l0.5-8.1l2-30l0.6-9.2
			l-9.2-0.4l-17.8-0.7l-1.1-20.9l58.1,2.6l11.3,0.5l-2-11.1l-4-22l-1.3-7l-7.1-0.3l-83-4L784.5,20.9L784.5,20.9z"/>
	</g>
	<g>
		<polygon class="st0" points="881.3,187.8 888.7,31.8 944.9,31.8 951.6,75.1 960.3,33.1 1020.6,28.4 1018.5,185.8 983.6,185.8 
			981.4,106.1 968.5,155.7 933.2,156.9 924.2,101 916.1,187.8 		"/>
		<path class="st1" d="M1016,33.3l-2,148h-26l-3-107l-20,77l-28,1l-14-87l-11,118h-26l7-147h48l10,64l13-63L1016,33.3 M1025.1,23.6
			l-9.8,0.8l-52,4l-6.8,0.5l-1.4,6.6l-3,14.4l-2.3-14.9l-1.2-7.6H941h-48h-8.6l-0.4,8.6l-7,147l-0.4,9.4h9.4h26h8.2l0.8-8.2
			l4.4-47.4l2.7,17l1.3,7.8l7.9-0.3l28-1l6.7-0.2l1.7-6.5l4.1-15.7l1.2,43.7l0.2,8.7h8.8h26h8.9l0.1-8.9l2-148L1025.1,23.6
			L1025.1,23.6z"/>
	</g>
	<g>
		<polygon class="st0" points="1020.5,186.7 1022.6,31.7 1119.8,33.9 1125.5,65 1056.7,62 1058.3,100.8 1084.1,100.8 1086.9,130.4 
			1058.5,132.5 1058.5,158.6 1121.3,155.6 1122.7,188.9 		"/>
		<path class="st1" d="M1027,36.3l89,2l4,22l-68-3l2,48h26l2,21l-28,2v35l63-3l1,24l-93-2L1027,36.3 M1018.1,27.1l-0.1,9.1l-2,146
			l-0.1,8.9l8.9,0.2l93,2l9.6,0.2l-0.4-9.6l-1-24l-0.4-9l-9,0.4l-53.6,2.6v-17.2l19.6-1.4l9.2-0.7l-0.9-9.2l-2-21l-0.8-8.1h-8.2
			h-17.4l-1.2-29.6l58.2,2.6l11.3,0.5l-2-11.1l-4-22l-1.3-7.2l-7.3-0.2l-89-2L1018.1,27.1L1018.1,27.1z"/>
	</g>
	<g>
		<path class="st0" d="M1173.6,189.3l-22.3-69.7l3.4,66.9l-32.2,1.4l-1.1-154.9l23.6-1.5l1.1,3.2c8,22.1,18.7,51.6,26.4,72
			c-2-20.9-5.5-50.7-8.1-71.9l-0.6-5.1h34.5l3.2,163.7L1173.6,189.3z"/>
		<path class="st1" d="M1194,34.3l3,154l-20-3l-32-100l5,97l-23,1l-1-146l16-1c0,0,32,89,36,96c0.1,0.2,0.2,0.3,0.3,0.3
			c2.8,0-9.3-98.3-9.3-98.3H1194 M1202.8,25.3h-8.8h-25h-10.2l1.3,10.1c1.5,12,3,24.4,4.3,36.1c-4.9-13.4-9.8-27-13.9-38.2l-2.3-6.4
			l-6.7,0.4l-16,1l-8.5,0.5l0.1,8.5l1,146l0.1,9.3l9.3-0.4l23-1l9.1-0.4l-0.5-9.1l-1.4-27.8l10.9,34l1.7,5.3l5.5,0.8l20,3l10.5,1.6
			l-0.2-10.7l-3-154L1202.8,25.3L1202.8,25.3z"/>
	</g>
	<g>
		<polygon class="st0" points="1230.8,195.8 1223.7,67.9 1206.2,63.6 1204.1,33.1 1285.5,31.7 1285.5,72.9 1254.5,71.9 
			1253.5,195.8 		"/>
		<path class="st1" d="M1281,36.3v32l-31-1l-1,124h-14l-7-127l-17.6-4.3l-1.5-22.5L1281,36.3 M1290,27.1l-9.2,0.2l-72.1,1.2
			l-9.5,0.2l0.6,9.4l1.5,22.5l0.4,6.6l6.4,1.6l11.1,2.7l6.6,120.3l0.5,8.5h8.5h14h8.9l0.1-8.9l0.9-114.8l21.8,0.7l9.3,0.3v-9.3v-32
			V27.1L1290,27.1z"/>
	</g>
</g>
</svg>
