<?xml version="1.0" encoding="utf-8"?>
<!-- Generator: Adobe Illustrator 25.2.0, SVG Export Plug-In . SVG Version: 6.00 Build 0)  -->
<svg version="1.1" id="Layer_1" xmlns="http://www.w3.org/2000/svg" xmlns:xlink="http://www.w3.org/1999/xlink" x="0px" y="0px"
	 viewBox="0 0 911.2 199.2" style="enable-background:new 0 0 911.2 199.2;" xml:space="preserve">
<style type="text/css">
	.st0{fill:#B30100;}
	.st1{fill:#FFFFFF;}
</style>
<g>
	<path class="st0" d="M173,151.9c-0.8,0-1.5,0-2.3-0.1c-15.3-1-26.3-7.8-31.7-19.8c-4.8-10.5-1.1-86.7-0.3-101.8l0.2-3.3h25.8
		l-0.4,3.8c0,0.2-1.9,20.1-3,40.8c-2,38.9,0.7,44.7,1.3,45.5c2.2,2.3,4.7,3.5,7.4,3.5c1.9,0,3.3-0.6,3.3-0.6l0.8-0.4l1,0.1
		c0,0,0.1,0,0.2,0c2.2,0,7.6-0.8,10.1-8c2.7-7.8,2.4-53.3,1.5-82l-0.1-3l28-5.1l-0.1,4.3c-0.2,9.6-1.6,94.5-5.6,105.1
		C204.8,142.2,188.3,151.9,173,151.9z"/>
	<path class="st1" d="M211.3,25.6c0,0-1.5,93.6-5.4,103.9c-3.7,9.8-18.7,18.8-32.9,18.8c-0.7,0-1.4,0-2.1-0.1
		c-14.8-0.9-24.1-7.5-28.7-17.8c-4.7-10.3,0-100.2,0-100.2h18.6c0,0-7.8,81.5-0.8,89c3.5,3.7,7.2,4.7,10,4.7c2.8,0,4.8-0.9,4.8-0.9
		s0.2,0,0.6,0c2.2,0,10.1-0.7,13.4-10.3c3.9-11.2,1.7-83.3,1.7-83.3L211.3,25.6 M218.4,17.2l-8.4,1.5l-20.8,3.8l-5.9,1.1l0.2,6
		c1.1,34.8,0.9,74.5-1.3,80.8c-1.7,4.9-5,5.6-6.8,5.6l0,0l-2.2-0.3l-1.3,1c-0.3,0.1-0.9,0.3-1.8,0.3c-1.6,0-3.1-0.7-4.5-2.1
		c-0.6-1.8-2.5-10.1-0.6-44.8c1.1-20.1,2.9-38.9,2.9-39.1l0.7-7.7l-7.7,0h-18.6h-6.6l-0.3,6.6c0,0.2-1.2,22.8-1.8,46.4
		c-1.2,49.1,1.2,54.5,2.4,57c4.2,9.2,13.6,20.6,34.7,21.9c0.8,0.1,1.7,0.1,2.5,0.1c16.9,0,34.6-10.5,39.4-23.3
		c0.8-2.2,2.8-7.5,4.6-58.1c0.9-24.5,1.2-48,1.2-48.2L218.4,17.2L218.4,17.2z"/>
</g>
<g>
	<path class="st0" d="M291.4,151.9l-0.7-2.5c0-0.1-4-13.4-9.1-26.5c-9.7-24.6-14.4-25.4-14.5-25.4c-3.6,0.3-6,0.5-7.6,0.7v53.8H229
		l5.8-129.7l3.3,0c0.1,0,9.8-0.1,21.2-0.1c6.8,0,12.9,0,18.1,0.1c17.7,0.3,36.8,14,36.8,35.6c0,17-14.6,27-21.5,30.8l35.3,63.4
		H291.4z M260.2,65.4c1,0.1,2.3,0.1,3.6,0.1c5.4,0,9.9-0.7,13.2-2c5.1-2,5.7-5,5.7-7.1c0-7.9-11.8-9.1-18.9-9.1
		c-1.4,0-2.6,0-3.6,0.1V65.4z"/>
	<path class="st1" d="M259.3,25.5c5.8,0,12.2,0,18,0.1c15.9,0.3,33.3,12.4,33.3,32.1c0,19.7-22.8,29.3-22.8,29.3l34.2,61.4h-28
		c0,0-16-54.4-26.9-54.4c-0.1,0-0.2,0-0.3,0C256,94.9,256,94.9,256,94.9v53.5h-23.4l5.5-122.7C238.1,25.6,247.7,25.5,259.3,25.5
		 M263.9,69c8.7,0,22.4-1.7,22.4-12.6c0-10.8-13.6-12.6-22.4-12.6c-4.1,0-7.1,0.4-7.1,0.4v24.3C256.7,68.6,259.8,69,263.9,69
		 M259.3,18.5c-11.5,0-21.2,0.1-21.3,0.1l-6.6,0.1l-0.3,6.6L225.6,148l-0.3,7.3h7.3H256h7v-7v-47.1c0.9-0.1,2-0.2,3.3-0.3
		c1.4,1.3,5.7,6.4,12.9,25.3c4.7,12.2,8.1,23.9,8.2,24l1.5,5l5.2,0h28h11.9l-5.8-10.4l-30.7-55.2c8-5.1,20.3-15.6,20.3-32.1
		c0-23.7-20.9-38.7-40.2-39.1C272.2,18.5,266.1,18.5,259.3,18.5L259.3,18.5z M263.7,50.9c0,0,0.1,0,0.1,0c4.9,0,9,0.6,11.9,1.7
		c3.5,1.4,3.5,2.9,3.5,3.8c0,1,0,2.4-3.5,3.8c-2.8,1.1-7,1.7-11.9,1.7c0,0-0.1,0-0.1,0V50.9L263.7,50.9z"/>
</g>
<g>
	<path class="st0" d="M390.9,160.2c-10.2,0-17.6-0.6-17.9-0.6l-3.1-0.3l-0.8-29.6l3.8,0.3c0,0,4.1,0.3,9.8,0.3
		c17.5,0,29.8-2.6,33.7-7c1-1.2,1.4-2.4,1.2-3.9c-0.7-5.2-7.8-9.7-16.1-14.8c-15.1-9.3-35.9-22.2-35.8-52.2
		c0-21.9,19.1-33.9,53.6-33.9c8.2,0,14,0.7,14.3,0.8l3,0.4l0.4,31.8l-4.6-1.4c-0.1,0-9.6-2.9-18.6-2.9c-14.4,0-14.4,7-14.4,9.6
		c0,6.3,7.6,11.4,16.5,17.4c5.4,3.6,11.4,7.7,16.8,12.7c13,12.1,19,35.8,19,48C451.7,155.8,418.6,160.2,390.9,160.2z"/>
	<path class="st1" d="M419.4,21.9c8.1,0,13.8,0.7,13.8,0.7l0.3,24c0,0-10-3-19.6-3c-9.1,0-17.9,2.7-17.9,13.1
		c0,12.6,19.8,19,34.4,32.7c11.6,10.9,17.9,33.1,17.9,45.4c0,19-35.2,21.9-57.4,21.9c-10.2,0-17.6-0.6-17.6-0.6l-0.6-22.6
		c0,0,4.2,0.3,10.1,0.3c14.7,0,40-1.9,38.4-14.9c-2.3-18.2-51.9-21.3-51.9-66.6C369.3,25.9,400.6,21.9,419.4,21.9 M419.4,14.9
		c-9.6,0-23.4,1-34.8,5.8c-14.6,6.2-22.3,17.1-22.3,31.6c0,14.3,4.3,26.1,13.2,36.3c7.4,8.4,16.4,14,24.3,18.9
		c6.9,4.2,14,8.6,14.4,12.2c0.1,0.5,0,0.7-0.4,1.1c-2.4,2.7-12,5.9-31.1,5.9c-5.5,0-9.5-0.3-9.6-0.3l-7.7-0.6l0.2,7.7l0.6,22.6
		l0.2,6.3l6.2,0.5c0.3,0,7.9,0.7,18.2,0.7c15.6,0,28.7-1.4,38.8-4.1c21.1-5.7,25.5-16.6,25.5-24.8c0-12.8-6.4-37.7-20.1-50.5
		c-5.6-5.2-11.8-9.4-17.3-13.1c-7.7-5.2-14.9-10.1-14.9-14.5c0-2.1,0-6.1,10.9-6.1c8.5,0,17.5,2.7,17.6,2.7l9.1,2.8l-0.1-9.5
		l-0.3-24l-0.1-6.1l-6-0.8C433.8,15.7,427.8,14.9,419.4,14.9L419.4,14.9z"/>
</g>
<g>
	<path class="st0" d="M485.2,157.6c-6.5,0-16.2-1.1-16.6-1.1l-3.2-0.4l3.8-105.4l-24.4-0.6V18.3l73.4,3v30.2l-21.9-3.8
		c-1.1,41.4-2.5,100.6-2.2,104.8c0.2,1.1-0.1,2.2-0.8,3.1C492,157,489.9,157.6,485.2,157.6z"/>
	<path class="st1" d="M448.2,21.9l66.4,2.7v22.6l-21.8-3.8c0,0-2.9,106.9-2.3,109.4c0.2,0.8-2.1,1.1-5.3,1.1
		c-6.4,0-16.2-1.1-16.2-1.1l3.8-105.7l-24.5-0.6V21.9 M441.2,14.6v7.3v24.8v6.8l6.8,0.2l17.5,0.4l-3.5,98.6l-0.2,6.5l6.4,0.7
		c0.4,0,10.3,1.2,17,1.2c4.2,0,8.2-0.3,10.7-3.4c1.3-1.6,1.8-3.6,1.6-5.6c-0.2-5.3,1.1-59.9,2.1-100.3l13.8,2.4l8.2,1.4v-8.3V24.6
		v-6.7l-6.7-0.3l-66.4-2.7L441.2,14.6L441.2,14.6z"/>
</g>
<g>
	<path class="st0" d="M545.2,154.5c-1.3,0-2.7-0.1-4.1-0.2c-12.2-1.4-21.8-9.4-27.7-22.9c-5-11.4-7.2-26.5-6.3-42.6
		c1.9-33.1,16.8-66.5,41.3-66.5c2.2,0,4.5,0.3,6.8,0.9c26.7,6.7,36.5,43.4,32.5,76.3C583.6,132.9,566.9,154.5,545.2,154.5
		C545.2,154.5,545.2,154.5,545.2,154.5z M549.4,54.9c-9.4,0-18.3,18.4-19.4,40.3c-0.7,14.1,2.2,31,13,32.2c0.4,0,0.9,0.1,1.3,0.1
		c10.9,0,17.9-15.5,20.1-30.8c2.5-17.6-1.1-38.1-12.6-41.3C551,55,550.2,54.9,549.4,54.9z"/>
	<path class="st1" d="M548.5,25.8c1.9,0,3.9,0.2,5.9,0.8C600.2,38,592.8,151,545.2,151c-1.2,0-2.4-0.1-3.7-0.2
		C492.9,145.1,506,25.8,548.5,25.8 M544.3,130.9c27,0,33.9-71.8,8.4-79c-1.1-0.3-2.2-0.5-3.3-0.5c-23.8,0-34,76.6-6.8,79.4
		C543.2,130.9,543.7,130.9,544.3,130.9 M548.5,18.8c-26.8,0-42.8,35.1-44.8,69.8c-1,16.6,1.3,32.3,6.5,44.2
		c6.5,14.8,17,23.4,30.5,25c1.5,0.2,3,0.3,4.5,0.3c23.6,0,41.6-22.9,46-58.2c4.2-34.4-6.5-72.9-35.1-80.1
		C553.6,19.1,551,18.8,548.5,18.8L548.5,18.8z M544.3,123.9c-0.3,0-0.6,0-0.9,0c-7.7-0.8-10.5-15.4-9.8-28.5
		c1.1-20.8,9.5-37,15.9-37c0.4,0,0.9,0.1,1.3,0.2c8.1,2.3,12.6,19.1,10.1,37.5C558.6,112.2,551.6,123.9,544.3,123.9L544.3,123.9z"/>
</g>
<g>
	<path class="st0" d="M641.8,158.1c0-0.1-2.8-12.6-6.6-25.4c-6.7-22.3-10.7-25.6-11.4-26.1c-4.2,0.4-6.7,1-8.1,1.4l-0.1,52.8h-27.4
		l5-136.9l3.3-0.1c0.1,0,8.5-0.1,18.5-0.1c5.9,0,11.2,0,15.7,0.1c15.6,0.3,32.4,14.7,32.4,37.4c0,17.8-12.8,28.4-18.7,32.3
		l30.9,61.9l-32.8,5.8L641.8,158.1z M616.7,69.8c0.7,0,1.5,0.1,2.3,0.1c4.5,0,8.3-0.7,11-2c3.3-1.6,4.9-4.1,4.9-7.8
		c0-9.7-9.8-11.6-15.6-11.9L616.7,69.8z"/>
	<path class="st1" d="M615,27.3c5.1,0,10.6,0,15.7,0.1c13.8,0.3,29,13.1,29,33.9c0,20.8-19.8,31-19.8,31l30.3,60.6l-24.9,4.4
		c0,0-11.8-54.2-21.3-54.2c-0.1,0-0.2,0-0.3,0c-9.5,1-11.5,2.5-11.5,2.5l-0.1,51.7h-20.3l4.8-129.9C596.6,27.4,604.9,27.3,615,27.3
		 M619,73.4c7.6,0,19.4-1.8,19.4-13.3c0-14.4-16.2-15.4-20.9-15.4c-0.8,0-1.3,0-1.3,0l-3.4,28.3C612.8,72.9,615.4,73.4,619,73.4
		 M615,20.3c-10,0-18.4,0.1-18.5,0.1l-6.6,0.1l-0.2,6.6l-4.8,129.9l-0.3,7.3h7.3h20.3h7l0-7l0.1-46.5c0.9-0.2,2-0.3,3.3-0.5
		c1.4,1.9,4.8,7.9,9.9,25.2c3.5,12,6,23.2,6,23.4l1.4,6.6l6.6-1.2l24.9-4.4l9.2-1.6l-4.2-8.4l-27.5-55c7-5.3,17.8-16.3,17.8-33.4
		c0-11.3-4-21.8-11.2-29.5c-6.7-7.1-15.7-11.3-24.6-11.5C626.2,20.3,620.9,20.3,615,20.3L615,20.3z M620.6,66.3l1.7-14.3
		c4.5,0.7,9,2.8,9,8.1c0,2.4-0.8,3.6-2.9,4.6C626.6,65.6,623.9,66.2,620.6,66.3L620.6,66.3z"/>
</g>
<g>
	<polygon class="st0" points="670.3,160.1 664.2,27 694.3,28.9 695,160.1 	"/>
	<path class="st1" d="M667.9,30.7l22.9,1.4l0.7,124.5h-17.9L667.9,30.7 M660.6,23.3l0.4,7.8l5.7,125.9l0.3,6.7h6.7h17.9h7l0-7
		l-0.7-124.5l0-6.5l-6.5-0.4l-22.9-1.4L660.6,23.3L660.6,23.3z"/>
</g>
<g>
	<polygon class="st0" points="701.8,162.3 697.3,24.6 750.9,22.1 750.9,51.3 722.7,52.1 722.4,77.2 751.1,76.5 749.9,108.5 
		723,107.6 724.3,130 754.8,127.9 759.3,163.1 	"/>
	<path class="st1" d="M747.4,25.8v22.2l-28.2,0.7l-0.4,32.2l28.6-0.7l-0.9,24.7l-27.3-0.8l1.7,29.8l30.8-2.1l3.6,27.9l-50.1-0.7
		l-4.3-130.9L747.4,25.8 M754.4,18.4l-7.3,0.3l-46.5,2.1l-6.9,0.3l0.2,6.9l4.3,130.9l0.2,6.7l6.7,0.1l50.1,0.7l8.1,0.1l-1-8
		l-3.6-27.9l-0.8-6.6l-6.6,0.5l-23.7,1.7l-0.9-15l19.6,0.6l7,0.2l0.3-7l0.9-24.7l0.3-7.4l-7.4,0.2l-21.3,0.5l0.3-18.2l21.4-0.5
		l6.8-0.2v-6.8V25.8V18.4L754.4,18.4z"/>
</g>
<g>
	<path class="st0" d="M756.2,164.3l0.3-35.8l3.8,0.4c0.1,0,5.3,0.5,12,0.5c13.9,0,23.8-2.2,27.1-6c1-1.2,1.4-2.5,1.2-4.1
		c-0.7-5.3-7.2-9.9-14.8-15.1C772,94.5,753,81.3,753,51.3c0-21.9,19.1-33.9,53.6-33.9c8.2,0,14,0.7,14.3,0.8l2.9,0.4l1.4,27
		l-4.4-0.9c0,0-4.7-0.9-10.3-0.9c-12.9,0-19.4,4.1-19.4,12.3c0,6.2,7.1,11,16.2,17c5.4,3.6,11.5,7.7,16.9,12.7
		c13.4,12.6,14.9,37.7,14.9,48c0,29.1-65.8,30.6-79,30.6L756.2,164.3z"/>
	<path class="st1" d="M806.6,20.8c8.1,0,13.8,0.7,13.8,0.7l1,19.6c0,0-4.9-1-11-1c-9.9,0-22.9,2.5-22.9,15.8
		c0,12.6,19.6,18.7,34.2,32.3c11.6,10.9,13.8,33.1,13.8,45.4c0,26.6-69.9,27.1-75.5,27.1c-0.2,0-0.4,0-0.4,0l0.3-28.4
		c0,0,5.4,0.5,12.3,0.5c13.6,0,33.3-2,31.8-14.1c-2.3-18.2-47.6-22.3-47.6-67.6C756.5,24.8,787.8,20.8,806.6,20.8 M806.6,13.8
		c-9.6,0-23.4,1-34.8,5.8c-14.6,6.2-22.3,17.1-22.3,31.6c0,14.2,3.9,26,12,36.3c6.8,8.6,15.1,14.4,22.4,19.5
		c6.6,4.6,12.8,8.9,13.3,12.7c0.1,0.8-0.1,1.1-0.4,1.4c-2,2.2-9.6,4.8-24.5,4.8c-6.5,0-11.6-0.5-11.6-0.5l-7.6-0.8l-0.1,7.7
		l-0.3,28.4l-0.1,7l7,0.1l0.4,0c3.6,0,22.6-0.2,41.1-3.7c11.2-2.1,20.2-5.1,26.8-8.9c12-6.9,14.5-15.5,14.5-21.5
		c0-10.7-1.6-37-16-50.5c-5.6-5.3-11.8-9.4-17.3-13.1c-7.8-5.2-14.6-9.7-14.6-14.1c0-2.4,0-8.8,15.9-8.8c5.3,0,9.6,0.8,9.7,0.8
		l8.8,1.7l-0.4-8.9l-1-19.6l-0.3-5.9l-5.8-0.7C821.1,14.6,815.1,13.8,806.6,13.8L806.6,13.8z"/>
</g>
<g>
	<path class="st0" d="M83,156.5c-0.6,0-1.1,0-1.7,0c-14.2-0.6-25.7-8.7-33.5-23.6c-6.5-12.5-9.9-29.2-9.6-47
		c0.4-17.1,4.1-33.1,10.6-45c7.6-14,18.3-21.4,30.8-21.4c1.7,0,3.5,0.1,5.3,0.4c31.2,5.1,44.9,45.2,42.1,80.3
		C124.4,134.4,107.1,156.5,83,156.5C83,156.5,83,156.5,83,156.5z M82.2,53C70.7,53,63.6,73,63.3,92.5c-0.3,17.8,5.1,35.9,17.6,36.2
		c0.2,0,0.3,0,0.5,0c12.9,0,19.1-16.7,20.5-31c1.9-19.8-4.2-41.9-17.7-44.5C83.5,53,82.8,53,82.2,53z"/>
	<path class="st1" d="M79.8,23c1.5,0,3.1,0.1,4.8,0.4C136.9,31.9,138.1,153,83,153c-0.5,0-1,0-1.6,0C26.6,150.7,31.1,23,79.8,23
		 M81.4,132.2c31,0,32.7-76.8,3.5-82.5c-0.9-0.2-1.8-0.3-2.7-0.3c-27.1,0-31.9,81.8-1.3,82.7C81,132.2,81.2,132.2,81.4,132.2
		 M79.8,16C66.1,16,54,24.2,45.9,39.2c-6.8,12.4-10.7,29-11.1,46.6c-0.4,18.3,3.2,35.6,9.9,48.7c8.3,16,20.9,24.8,36.4,25.5
		c0.6,0,1.2,0,1.9,0c26,0,44.7-23.3,47.6-59.5c3-36.7-11.8-78.6-45-84C83.7,16.1,81.7,16,79.8,16L79.8,16z M81.4,125.2
		c-0.1,0-0.2,0-0.4,0c-9.6-0.3-14.4-16.7-14.2-32.7c0.3-19.2,7.4-36.1,15.3-36.1c0.5,0,0.9,0,1.4,0.1c6.1,1.2,9.7,7.7,11.7,12.9
		c2.9,7.8,4.1,17.9,3.2,27.8C97.1,111.2,91.3,125.2,81.4,125.2L81.4,125.2z"/>
</g>
</svg>
