<?xml version="1.0" encoding="utf-8"?>
<!-- Generator: Adobe Illustrator 25.2.0, SVG Export Plug-In . SVG Version: 6.00 Build 0)  -->
<svg version="1.1" id="Layer_1" xmlns="http://www.w3.org/2000/svg" xmlns:xlink="http://www.w3.org/1999/xlink" x="0px" y="0px"
	 viewBox="0 0 1366 295" style="enable-background:new 0 0 1366 295;" xml:space="preserve">
<style type="text/css">
	.st0{fill:#B30100;}
	.st1{fill:#FFFFFF;}
</style>
<g>
	<path class="st0" d="M599.4,234.3c-1.4,0-2.8-0.1-4.1-0.2c-19.3-1.7-33-10.7-39.4-26.1C550,194.2,558,89,558.9,77l0.3-3.3l31.2,0.8
		l-0.5,3.8c0,0.3-3.2,26.4-5.3,53.4c-3.9,50.8-0.3,57.8,0.4,58.7c3.1,3.5,6.6,5.2,10.6,5.2c2.5,0,4.3-0.8,4.3-0.8l0.9-0.4l1,0.1
		c0,0,0.3,0,0.7,0c3,0,10.4-1,14-10.6c4.2-11.3,4.9-80.5,4.7-106.3l0-3l34.2-5.3l-0.2,4.3c-0.5,12.4-5.3,121.9-10.7,135.2
		C638.9,222.9,618.6,234.3,599.4,234.3z"/>
	<path class="st1" d="M651.8,73.6c0,0-5.1,120.9-10.4,134c-5,12.3-24,23.2-42,23.2c-1.3,0-2.5-0.1-3.8-0.2
		c-19-1.7-30.9-10.5-36.5-23.9c-5.7-13.5,3.4-129.4,3.4-129.4l24.1,0.6c0,0-12.8,105-4,114.9c4.6,5.2,9.5,6.4,13.2,6.4
		c3.4,0,5.7-1.1,5.7-1.1s0.4,0,1.1,0c3.3,0,12.9-1,17.3-12.9c5.4-14.4,5-107.5,5-107.5L651.8,73.6 M659.1,65.3l-8.4,1.3l-27,4.2
		l-6,0.9l0,6c0.2,35.5-0.9,95.4-4.5,105c-2.7,7.3-7.9,8.3-10.7,8.3c-0.2,0-0.3,0-0.3,0l-2.1-0.3l-1.5,0.9c-0.3,0.1-1.4,0.5-2.9,0.5
		c-2.8,0-5.4-1.2-7.7-3.8c-0.8-1.7-3.3-11.4,0.4-58.4c2.1-26.2,5.1-51,5.1-51.3l0.9-7.6l-7.7-0.2l-24.1-0.6l-6.6-0.2l-0.5,6.6
		c0,0.3-2.3,29.4-3.8,59.9c-3.2,62.9-0.3,69.9,1,72.8c4.9,11.6,16.2,25.8,42.4,28.2c1.4,0.1,2.9,0.2,4.4,0.2
		c20.5,0,42.3-12.4,48.5-27.5c1-2.5,3.8-9.3,7.7-74.2c1.9-31.6,3.2-61.9,3.2-62.2L659.1,65.3L659.1,65.3z"/>
</g>
<g>
	<path class="st0" d="M130.2,221.5l-0.7-2.5c-0.1-0.2-5.5-20.5-12.8-40.4c-13.6-37.3-20.8-38.3-21.6-38.3
		c-6.7,0.4-10.7,0.6-12.9,0.8l-2.1,79.2l-41.6-1.1L51.8,31.3l3.3,0c0.3,0,32.5,0.4,58,1.5c25.3,1.1,52.1,21.4,51.3,52.2
		c-0.7,25.5-24.3,39.5-33.4,43.9l49.1,93.8L130.2,221.5z M84.5,95.9c2.3,0.2,5.6,0.5,9.4,0.5c12.4,0,27.2-2.5,27.5-14.3
		c0.1-3.4-0.9-6.1-3.1-8.3c-6.3-6.5-20.6-7.5-28.5-7.5c-1.8,0-3.3,0-4.6,0.1L84.5,95.9z"/>
	<path class="st1" d="M55,34.8c0,0,32.1,0.4,57.9,1.5c23.4,1,48.7,19.6,47.9,48.6c-0.8,29-34.8,42.4-34.8,42.4l48.1,91.8l-41.3-1.1
		c0,0-21.7-81.4-37.8-81.4c-0.1,0-0.2,0-0.3,0c-16.1,1-16.1,1-16.1,1l-2,78.9l-34.5-0.9L55,34.8 M93.9,99.9c12.8,0,30.7-2.7,31-17.7
		c0.4-17.1-22.5-19.4-35.1-19.4c-4.7,0-8,0.3-8,0.3L80.9,99C80.9,99,86.6,99.9,93.9,99.9 M48.5,27.8l-0.5,6.6L35.3,215.2l-0.5,7.3
		l7.3,0.2l34.5,0.9l7,0.2l0.2-7l1.9-72.5c2.2-0.1,5.2-0.3,9.2-0.6c1.2,0.7,7.9,5.9,19.6,38.5c6.8,19,11.7,37.5,11.8,37.6l1.3,5.1
		l5.2,0.1l41.3,1.1l11.9,0.3l-5.5-10.6l-44.7-85.4c11.1-6.1,31.6-20.6,32.2-45.3c0.4-15.4-5.7-29.6-17.2-40.1
		c-10.2-9.3-23.8-15-37.4-15.6c-25.6-1.1-57.8-1.5-58.1-1.5L48.5,27.8L48.5,27.8z M88.7,69.8c0.4,0,0.7,0,1.1,0
		c12.4,0,22.1,2.4,26,6.4c1.5,1.6,2.2,3.4,2.1,5.8c-0.2,9.5-15.2,10.9-24,10.9c-2.1,0-4.1-0.1-5.8-0.2L88.7,69.8L88.7,69.8z"/>
</g>
<g>
	<path class="st0" d="M675.7,57.8l3.3-0.3c0.3,0,32.4-2.7,57.8-4c0.9,0,1.8-0.1,2.7-0.1c24.6,0,51.3,17.6,53.4,47.1
		c1.8,25.4-20.4,41.6-29.1,46.9l57.8,88.7l-49.7,3.5l-0.9-2.5c-0.1-0.2-7.3-19.5-16.3-38.5c-16.6-34.9-24-36.7-25.3-36.7
		c-0.1,0-0.1,0-0.2,0c-6.6,1-10.5,1.6-12.7,2l5.5,79.1l-41.5,2.9L675.7,57.8z M714.8,119c5.7,0,24.8-0.6,32.2-8.6
		c2.2-2.4,3.2-5.2,2.9-8.7c-0.6-8.7-8.9-13.2-24.6-13.2c-5.2,0-10,0.5-12.9,1l2,29.5C714.5,119,714.6,119,714.8,119z"/>
	<path class="st1" d="M739.5,57c22.8,0,47.9,15.9,49.9,43.9c2,29-30.6,45.5-30.6,45.5l56.6,86.9l-41.2,2.9c0,0-28.8-77.4-44.9-77.4
		c-0.3,0-0.5,0-0.7,0.1c-15.9,2.5-15.9,2.5-15.9,2.5l5.5,78.8l-34.4,2.4l-4.5-181.3c0,0,32-2.7,57.7-4C737.9,57,738.7,57,739.5,57
		 M714.8,122.5c10.4,0,40-1.7,38.6-21c-0.9-13.6-15.8-16.4-28.1-16.4c-9,0-16.6,1.5-16.6,1.5l2.5,35.8
		C711.2,122.5,712.5,122.5,714.8,122.5 M739.5,50c-1,0-1.9,0-2.8,0.1c-25.5,1.3-57.6,4-58,4l-6.6,0.5l0.2,6.6l4.5,181.3l0.2,7.3
		l7.3-0.5l34.4-2.4l7-0.5l-0.5-7l-5-72.4c2.2-0.3,5.1-0.8,9.1-1.4c1.3,0.6,8.4,5.2,23.1,36.5c8.6,18.2,15.2,36.2,15.3,36.3l1.8,4.9
		l5.2-0.4l41.2-2.9l11.9-0.8l-6.5-10l-52.7-80.8c10.5-7.1,29.5-23.5,27.8-48.2c-1-14.8-8-28.1-19.7-37.4
		C766.3,54.7,752.8,50,739.5,50L739.5,50z M716.1,92.6c2.6-0.3,5.8-0.5,9.2-0.5c13.5,0,20.6,3.3,21.1,9.9c0.2,2.5-0.4,4.4-2,6
		c-4,4.3-14.1,7.1-26.7,7.4L716.1,92.6L716.1,92.6z"/>
</g>
<g>
	<path class="st0" d="M480.1,223.4c-1.2,0-2.3,0-3.5-0.1c-17.6-1.2-31.8-11.6-41.2-30.2c-7.9-15.8-11.9-36.8-11.1-59.2
		c1.4-42.5,20.4-85.5,53.8-85.5c2.5,0,5.1,0.2,7.7,0.7c38.7,7.3,55.2,58.1,51,102.2C532.7,195.1,510.4,223.4,480.1,223.4
		C480.1,223.4,480.1,223.4,480.1,223.4z M480.7,89.7c-15.6,0-25.6,26.8-26.4,52.8c-0.6,22.7,6.1,46.1,22.5,47c0.4,0,0.8,0,1.2,0
		c17.5,0,26.1-22.4,28.2-41.5c2.7-25.1-4.2-53.9-22.3-57.9C482.9,89.8,481.8,89.7,480.7,89.7z"/>
	<path class="st1" d="M478.1,51.9c2.3,0,4.6,0.2,7.1,0.7c66.9,12.7,64.8,167.3-5,167.3c-1.1,0-2.2,0-3.3-0.1
		C406.4,215,416.1,51.9,478.1,51.9 M478.1,193c39.4,0,43.9-98.2,6.6-106.4c-1.4-0.3-2.7-0.4-4-0.4c-34.6,0-43.3,104.6-4,106.8
		C477.2,193,477.6,193,478.1,193 M478.1,44.9c-9,0-17.3,2.8-24.9,8.4c-6.7,4.9-12.6,11.9-17.5,20.8c-8.9,16-14.2,37.2-14.9,59.7
		c-0.8,23,3.3,44.6,11.5,60.9c9.9,19.7,25.1,30.8,44,32.1c1.3,0.1,2.5,0.1,3.7,0.1c17.3,0,32.2-8.2,43.1-23.8
		c9.3-13.3,15.2-31.1,17.1-51.5c2.2-23.2-1.3-47.3-9.5-66.2c-4.6-10.4-10.4-19.1-17.4-25.7c-7.8-7.4-16.9-12.1-26.9-14
		C483.6,45.1,480.8,44.9,478.1,44.9L478.1,44.9z M478.1,186c-0.3,0-0.6,0-1,0c-14-0.8-19.8-23.1-19.2-43.4
		c0.7-26.8,11.2-49.4,22.9-49.4c0.8,0,1.6,0.1,2.4,0.3c8.6,1.9,13.5,10.8,16,17.9c3.7,10.2,4.9,23.4,3.5,36.3
		C500.7,166.7,492.2,186,478.1,186L478.1,186z"/>
</g>
<g>
	<path class="st0" d="M913.7,233.1c-25.5,0-85.2-9.2-87.1-94.6C826,110,832.9,88.3,847,73.8c13-13.3,32.5-20.3,56.2-20.3
		c17.4,0,30.9,3.7,31.4,3.9l2.8,0.8L934.5,98l-4.2-1.4c-0.1,0-8.9-2.8-19.7-2.8c-26.3,0-40.1,15-41.2,44.7
		c-0.6,17.6,3.5,31.2,12.4,40.3c11.6,12,28.6,13.8,37.7,13.8c3.4,0,5.5-0.3,5.5-0.3l3.7-0.4l0.3,3.7l2.6,35.8l-3.1,0.6
		C928.2,232.1,922.4,233.1,913.7,233.1z"/>
	<path class="st1" d="M903.3,57c17.1,0,30.5,3.7,30.5,3.7l-2.4,32.6c0,0-9.2-3-20.8-3c-18.6,0-43.3,7.7-44.7,48
		c-1.9,52.7,38.1,57.8,53.6,57.8c3.7,0,6-0.3,6-0.3l2.4,32.6c0,0-5.6,1-14,1c-26.6,0-81.8-9.8-83.6-91.2
		C828.6,69.3,872.1,57,903.3,57 M903.3,50v7V50c-24.7,0-45.1,7.4-58.7,21.4c-14.8,15.2-22,37.8-21.3,67.2
		c0.8,37.7,12.7,65.1,35.4,81.6c18.6,13.6,40.3,16.4,55.2,16.4c9,0,15-1.1,15.3-1.1l6.2-1.1l-0.5-6.3l-2.4-32.6l-0.5-7.4l-7.3,0.9
		c0,0-2,0.2-5.1,0.2c-8.5,0-24.5-1.7-35.2-12.8c-8.2-8.5-12-21.2-11.4-37.8c1-27.4,13.7-41.3,37.7-41.3c10.2,0,18.5,2.6,18.6,2.6
		l8.4,2.7l0.7-8.8l2.4-32.6l0.4-5.7l-5.5-1.5C935,53.8,921.1,50,903.3,50L903.3,50z"/>
</g>
<g>
	<path class="st0" d="M331.7,225.6c-13.3,0-22.9-0.8-23.3-0.8l-3.1-0.3l-0.9-36.6l3.8,0.3c0.1,0,5.4,0.4,12.9,0.4
		c23.1,0,39.5-3.5,44.8-9.6c1.5-1.7,2.1-3.6,1.8-5.9c-0.9-7.4-10.5-13.2-21.5-20.1c-19.6-12.1-46.3-28.6-46.3-67.3
		c0-27.9,24.5-43.2,68.9-43.2c10.6,0,18.2,0.9,18.5,1l3,0.4l0.5,39.2l-4.6-1.4c-0.1,0-12.7-3.8-24.6-3.8
		c-19.9,0-19.9,10.2-19.9,13.6c0,8.7,10.2,15.6,22,23.6c7,4.7,14.9,10,21.8,16.5c16.7,15.6,24.5,46.1,24.5,61.8
		C410.1,220,367.5,225.6,331.7,225.6z"/>
	<path class="st1" d="M368.9,46c10.5,0,18.1,1,18.1,1l0.4,31.4c0,0-13-4-25.6-4c-11.9,0-23.4,3.5-23.4,17.1
		c0,16.4,25.9,24.9,44.9,42.7c15.2,14.2,23.4,43.2,23.4,59.3c0,24.8-46,28.7-74.9,28.7c-13.3,0-23-0.8-23-0.8l-0.7-29.6
		c0,0,5.4,0.4,13.1,0.4c19.2,0,52.3-2.4,50.1-19.4c-3-23.8-67.8-27.8-67.8-86.9C303.5,51.2,344.3,46,368.9,46 M368.9,39
		c-12.3,0-30,1.3-44.6,7.5c-18.2,7.7-27.8,21.2-27.8,39.2c0,40.7,27.7,57.8,48,70.3c10.3,6.3,19.1,11.8,19.8,17.5
		c0.2,1.3-0.1,2.2-1,3.2c-3.6,4-16.5,8.4-42.2,8.4c-7.3,0-12.6-0.4-12.6-0.4l-7.7-0.6l0.2,7.7l0.7,29.6l0.2,6.3l6.2,0.5
		c0.4,0,10.2,0.8,23.6,0.8c13.9,0,33.9-0.9,50.1-5.3c26.3-7.1,31.8-20.4,31.8-30.4c0-16.3-8.1-48-25.6-64.4
		c-7.2-6.7-15.2-12.1-22.3-16.9c-11-7.4-20.4-13.8-20.4-20.7c0-3.3,0-10.1,16.4-10.1c11.4,0,23.5,3.6,23.6,3.7l9.1,2.8l-0.1-9.5
		L394,46.9l-0.1-6.1l-6-0.8C387.5,40,379.7,39,368.9,39L368.9,39z"/>
</g>
<g>
	<path class="st0" d="M1140.3,239c-13.3,0-22.9-0.8-23.3-0.8l-3.1-0.3l-0.9-36.6l3.8,0.3c0.1,0,5.4,0.4,12.9,0.4
		c23.1,0,39.5-3.5,44.8-9.6c1.5-1.7,2.1-3.6,1.8-5.9c-0.9-7.4-10.5-13.2-21.5-20.1c-19.6-12.1-46.3-28.6-46.3-67.3
		c0-27.9,24.5-43.2,68.9-43.2c10.6,0,18.2,0.9,18.5,1l3,0.4l0.5,39.2l-4.6-1.4c-0.1,0-12.7-3.8-24.6-3.8
		c-19.9,0-19.9,10.2-19.9,13.6c0,8.7,10.2,15.6,22,23.6c7,4.7,14.9,10,21.8,16.5c16.7,15.6,24.5,46.1,24.5,61.8
		C1218.7,233.4,1176.1,239,1140.3,239z"/>
	<path class="st1" d="M1177.5,59.5c10.5,0,18.1,1,18.1,1l0.4,31.4c0,0-13-4-25.6-4c-11.9,0-23.4,3.5-23.4,17.1
		c0,16.4,25.9,24.9,44.9,42.7c15.2,14.2,23.4,43.2,23.4,59.3c0,24.8-46,28.7-74.9,28.7c-13.3,0-23-0.8-23-0.8l-0.7-29.6
		c0,0,5.4,0.4,13.1,0.4c19.2,0,52.3-2.4,50.1-19.4c-3-23.8-67.8-27.8-67.8-86.9C1112.1,64.7,1153,59.5,1177.5,59.5 M1177.5,52.5
		c-12.3,0-30,1.3-44.6,7.5c-18.2,7.7-27.8,21.2-27.8,39.2c0,40.7,27.7,57.8,48,70.3c10.3,6.3,19.1,11.8,19.8,17.5
		c0.2,1.3-0.1,2.2-1,3.2c-3.6,4-16.5,8.4-42.2,8.4c-7.3,0-12.6-0.4-12.6-0.4l-7.7-0.6l0.2,7.7l0.7,29.6l0.2,6.3l6.2,0.5
		c0.4,0,10.2,0.8,23.6,0.8c13.9,0,33.9-0.9,50.1-5.3c26.3-7.1,31.8-20.4,31.8-30.4c0-16.3-8.1-48-25.6-64.4
		c-7.2-6.7-15.2-12.1-22.3-16.9c-11-7.4-20.4-13.8-20.4-20.7c0-3.3,0-10.1,16.4-10.1c11.4,0,23.5,3.6,23.6,3.7l9.1,2.8l-0.1-9.5
		l-0.4-31.4l-0.1-6.1l-6-0.8C1196.2,53.4,1188.4,52.5,1177.5,52.5L1177.5,52.5z"/>
</g>
<g>
	<polygon class="st0" points="182.6,224.2 191.1,47.2 282.2,52.2 287.7,86.2 219.1,82.8 220.6,118 247.1,119.1 244.6,161.7 
		220.8,162.9 220.8,194 280.1,197.4 285.8,226.7 	"/>
	<path class="st1" d="M195.3,52l83,4.5l4,24.9l-68-3.4l2,44.2l26,1.1l-2,34l-24,1.1v39.7l60,3.4l4,20.4l-93-2.3L195.3,52
		 M186.8,42.5l-0.4,9.1l-8,167.8l-0.4,9.2l9.2,0.2l93,2.3l11.2,0.3l-2.2-11l-4-20.4l-1.3-6.9l-7-0.4l-51.5-2.9v-22.6l15.4-0.7
		l8.1-0.4l0.5-8.1l2-34l0.5-9.1l-9.1-0.4l-17.8-0.8l-1.2-26.1l58.1,2.9L293,91l-1.8-11l-4-24.9l-1.1-7.2l-7.2-0.4l-83-4.5
		L186.8,42.5L186.8,42.5z"/>
</g>
<g>
	<polygon class="st0" points="962.1,240.5 972.3,52.3 1080.8,57.5 1087.2,93.2 1004.3,89.5 1006.2,127.7 1038.2,128.9 1035.2,173.9 
		1006.4,175.1 1006.4,208.8 1078.2,212.4 1085,243.1 	"/>
	<path class="st1" d="M976.5,57l100.4,4.8l4.8,26.6l-82.3-3.6l2.4,47.2l31.5,1.2l-2.4,36.3l-29,1.2v42.4l72.6,3.6l4.8,21.8
		l-112.5-2.4L976.5,57 M968,47.6l-0.5,8.9l-9.7,179.1l-0.5,9.3l9.3,0.2l112.5,2.4l11.5,0.2l-2.5-11.2l-4.8-21.8l-1.5-6.7l-6.8-0.3
		l-64.1-3.2v-25.2l20.4-0.9l8.1-0.3l0.5-8.1l2.4-36.3l0.6-9.2l-9.2-0.4l-23.2-0.9l-1.5-29.1l72.4,3.2l11.3,0.5l-2-11.1l-4.8-26.6
		l-1.3-7l-7.1-0.3L977,48L968,47.6L968,47.6z"/>
</g>
</svg>
